<svg width="28" height="28" viewBox="0 0 28 28" fill="none" xmlns="http://www.w3.org/2000/svg">
<g clip-path="url(#clip0_2213_2693)">
<path d="M1.67287 8.60962C2.49898 5.05734 6.11623 0.615238 11.5383 0.475019C16.9603 0.3348 21.8691 1.73732 25.095 5.94486C28.3208 10.1524 28.3208 18.0243 26.4975 20.4699C24.6742 22.9154 24.2078 28.2449 15.9557 27.6839C7.7037 27.1229 4.75839 25.3749 2.09358 21.5505C-0.571235 17.726 0.54893 13.4422 1.67287 8.60962Z" fill="#D19B61"/>
<path d="M8.85034 9.50116C8.85034 10.0941 7.84272 10.5749 6.59973 10.5749C5.35674 10.5749 4.34912 10.0942 4.34912 9.50116C4.34912 8.0725 6.71474 7.81427 6.74394 7.25066C6.74941 7.14495 6.89597 7.07724 7.02028 7.12756C7.67171 7.39142 8.85034 8.06703 8.85034 9.50116ZM17.6916 22.421C17.5801 22.3848 17.4486 22.4335 17.4437 22.5095C17.4175 22.9146 15.2955 23.1002 15.2955 24.1271C15.2955 24.5533 16.1994 24.8989 17.3143 24.8989C18.4292 24.8989 19.3331 24.5533 19.3331 24.1271C19.3332 23.0963 18.2759 22.6107 17.6916 22.421ZM22.4793 15.9472C22.3678 15.8942 22.2364 15.9654 22.2314 16.0766C22.2052 16.669 20.0833 16.9405 20.0833 18.4422C20.0833 19.0656 20.9871 19.5709 22.1021 19.5709C23.217 19.5709 24.1208 19.0656 24.1208 18.4422C24.1208 16.9347 23.0636 16.2245 22.4793 15.9472Z" fill="#4F3D30"/>
<path d="M14.4827 15.0315C14.4827 15.5972 13.5788 16.0559 12.4639 16.0559C11.349 16.0559 10.4451 15.5972 10.4451 15.0315C10.4451 13.6685 12.5671 13.4222 12.5933 12.8844C12.5982 12.7835 12.7297 12.7189 12.8411 12.767C13.4254 13.0187 14.4827 13.6633 14.4827 15.0315ZM14.8599 3.50196C14.7484 3.46575 14.617 3.51443 14.6121 3.59044C14.5859 3.99557 12.4639 4.18118 12.4639 5.20804C12.4639 5.63428 13.3678 5.97979 14.4827 5.97979C15.5976 5.97979 16.5015 5.63428 16.5015 5.20804C16.5015 4.17724 15.4442 3.69161 14.8599 3.50196ZM21.4827 6.49785C21.3811 6.44792 21.2613 6.51507 21.2568 6.61996C21.2329 7.17925 19.2986 7.43546 19.2986 8.85302C19.2986 9.4414 20.1225 9.91844 21.1389 9.91844C22.1552 9.91844 22.9791 9.44146 22.9791 8.85302C22.979 7.43 22.0153 6.75964 21.4827 6.49785ZM8.61543 19.4714C8.49118 19.4103 8.34468 19.4924 8.33915 19.6207C8.30995 20.3045 5.94482 20.6178 5.94482 22.3512C5.94482 23.0707 6.95222 23.6539 8.19494 23.6539C9.43766 23.6539 10.4451 23.0707 10.4451 22.3512C10.4451 20.6112 9.26665 19.7915 8.61543 19.4714Z" fill="#332A23"/>
</g>
<defs>
<clipPath id="clip0_2213_2693">
<rect width="28" height="28" fill="white"/>
</clipPath>
</defs>
</svg>
