<svg width="24" height="24" viewBox="0 0 24 24" fill="none" xmlns="http://www.w3.org/2000/svg">
<path d="M18 4H15V5C15 5.26522 14.8946 5.51957 14.7071 5.70711C14.5196 5.89464 14.2652 6 14 6H10C9.73478 6 9.48043 5.89464 9.29289 5.70711C9.10536 5.51957 9 5.26522 9 5V4H6C5.73478 4 5.48043 4.10536 5.29289 4.29289C5.10536 4.48043 5 4.73478 5 5V20C5 20.2652 5.10536 20.5196 5.29289 20.7071C5.48043 20.8946 5.73478 21 6 21H18C18.2652 21 18.5196 20.8946 18.7071 20.7071C18.8946 20.5196 19 20.2652 19 20V5C19 4.73478 18.8946 4.48043 18.7071 4.29289C18.5196 4.10536 18.2652 4 18 4Z" fill="white"/>
<path d="M14 3H10C9.44772 3 9 3.44772 9 4V5C9 5.55228 9.44772 6 10 6H14C14.5523 6 15 5.55228 15 5V4C15 3.44772 14.5523 3 14 3Z" stroke="#2CA9BC" stroke-width="2" stroke-linecap="round" stroke-linejoin="round"/>
<path d="M9 13L11 15L15 11" stroke="#2CA9BC" stroke-width="2" stroke-linecap="round" stroke-linejoin="round"/>
<path d="M18 4C18.2652 4 18.5196 4.10536 18.7071 4.29289C18.8946 4.48043 19 4.73478 19 5V20C19 20.2652 18.8946 20.5196 18.7071 20.7071C18.5196 20.8946 18.2652 21 18 21H6C5.73478 21 5.48043 20.8946 5.29289 20.7071C5.10536 20.5196 5 20.2652 5 20V5C5 4.73478 5.10536 4.48043 5.29289 4.29289C5.48043 4.10536 5.73478 4 6 4" stroke="#2CA9BC" stroke-width="2" stroke-linecap="round" stroke-linejoin="round"/>
</svg>
