<svg width="46" height="45" viewBox="0 0 46 45" fill="none" xmlns="http://www.w3.org/2000/svg">
<path d="M41.4436 31.3877V8.75642C41.4436 6.50642 39.6061 4.83767 37.3749 5.02517H37.2624C33.3249 5.36267 27.3436 7.36892 24.0061 9.46892L23.6874 9.67517C23.1436 10.0127 22.2436 10.0127 21.6999 9.67517L21.2311 9.39392C17.8936 7.31267 11.9311 5.32517 7.9936 5.00642C5.76235 4.81892 3.9436 6.50642 3.9436 8.73767V31.3877C3.9436 33.1877 5.4061 34.8752 7.2061 35.1002L7.74985 35.1752C11.8186 35.7189 18.0999 37.7814 21.6999 39.7502L21.7749 39.7877C22.2811 40.0689 23.0874 40.0689 23.5749 39.7877C27.1749 37.8002 33.4749 35.7189 37.5624 35.1752L38.1811 35.1002C39.9811 34.8752 41.4436 33.1877 41.4436 31.3877Z" stroke="#983591" stroke-width="2" stroke-linecap="round" stroke-linejoin="round"/>
<path d="M22.6936 10.2939V38.4189" stroke="#983591" stroke-width="2" stroke-linecap="round" stroke-linejoin="round"/>
<path d="M14.7249 15.9189H10.5061" stroke="#D8D8D8" stroke-width="2" stroke-linecap="round" stroke-linejoin="round"/>
<path d="M16.1311 21.5439H10.5061" stroke="#D8D8D8" stroke-width="2" stroke-linecap="round" stroke-linejoin="round"/>
</svg>
