<svg width="21" height="21" viewBox="0 0 21 21" fill="none" xmlns="http://www.w3.org/2000/svg">
<path d="M16.9635 13.8765H6.96348C6.1885 13.8765 5.80102 13.8765 5.4831 13.9617C4.62037 14.1928 3.9465 14.8667 3.71533 15.7294" stroke="#F4C419"/>
<path d="M7.04834 6.37646H13.715" stroke="#F4C419" stroke-linecap="round"/>
<path d="M7.04834 9.29297H11.215" stroke="#F4C419" stroke-linecap="round"/>
<path d="M11.2152 13.8765V16.8189C11.2152 17.0486 11.2152 17.1634 11.1361 17.2098C11.0571 17.2562 10.949 17.2049 10.7328 17.1022L9.69757 16.6104C9.62442 16.5757 9.58785 16.5583 9.5485 16.5583C9.50916 16.5583 9.47258 16.5757 9.39943 16.6104L8.36424 17.1022C8.14803 17.2049 8.03993 17.2562 7.96088 17.2098C7.88184 17.1634 7.88184 17.0486 7.88184 16.8189V14.2515" stroke="#F4C419" stroke-linecap="round"/>
<path d="M8.71533 18.8761C6.35831 18.8761 5.1798 18.8761 4.44757 18.1439C3.71533 17.4117 3.71533 16.2332 3.71533 13.8761V7.20947C3.71533 4.85245 3.71533 3.67394 4.44757 2.94171C5.1798 2.20947 6.35831 2.20947 8.71533 2.20947H12.0487C14.4057 2.20947 15.5842 2.20947 16.3164 2.94171C17.0487 3.67394 17.0487 4.85245 17.0487 7.20947M12.0487 18.8761C14.4057 18.8761 15.5842 18.8761 16.3164 18.1439C17.0487 17.4117 17.0487 16.2332 17.0487 13.8761V10.5428" stroke="#F4C419" stroke-linecap="round"/>
</svg>
