<svg width="19" height="19" viewBox="0 0 19 19" fill="none" xmlns="http://www.w3.org/2000/svg">
<path d="M8.89315 9.73814C9.17815 9.22688 9.32065 8.97125 9.53369 8.97125C9.74674 8.97125 9.88923 9.22688 10.1742 9.73814L10.248 9.8704C10.3289 10.0157 10.3694 10.0883 10.4326 10.1363C10.4957 10.1842 10.5744 10.202 10.7316 10.2376L10.8748 10.27C11.4282 10.3952 11.7049 10.4578 11.7708 10.6695C11.8366 10.8812 11.648 11.1018 11.2707 11.543L11.1731 11.6571C11.0658 11.7825 11.0122 11.8452 10.9881 11.9227C10.964 12.0003 10.9721 12.0839 10.9883 12.2512L11.0031 12.4035C11.0601 12.9921 11.0886 13.2865 10.9163 13.4173C10.7439 13.5481 10.4848 13.4289 9.96667 13.1903L9.83261 13.1285C9.68536 13.0607 9.61173 13.0268 9.53369 13.0268C9.45565 13.0268 9.38203 13.0607 9.23478 13.1285L9.10072 13.1903C8.58254 13.4288 8.32346 13.5481 8.1511 13.4173C7.97874 13.2865 8.00726 12.9921 8.06431 12.4035L8.07906 12.2512C8.09527 12.0839 8.10338 12.0003 8.07926 11.9227C8.05514 11.8452 8.00154 11.7825 7.89432 11.6571L7.79671 11.543C7.41942 11.1018 7.23078 10.8812 7.29661 10.6695C7.36245 10.4578 7.63916 10.3952 8.19259 10.27L8.33577 10.2376C8.49303 10.202 8.57167 10.1842 8.6348 10.1363C8.69794 10.0883 8.73843 10.0157 8.81942 9.87041L8.89315 9.73814Z" stroke="#F4C419" stroke-width="1.2"/>
<path d="M16.9123 8.69087C17.0473 7.2564 17.1148 6.53917 16.8695 6.24269C16.7367 6.0823 16.5562 5.98403 16.3632 5.96708C16.0064 5.93575 15.5584 6.44581 14.6623 7.46593C14.1989 7.9935 13.9672 8.25728 13.7087 8.29813C13.5654 8.32077 13.4195 8.2975 13.2872 8.23094C13.0486 8.11082 12.8894 7.78472 12.5711 7.13252L10.8935 3.69477C10.2921 2.46234 9.99134 1.84613 9.53369 1.84613C9.07604 1.84613 8.77533 2.46234 8.17389 3.69477L6.49624 7.13252C6.17796 7.78472 6.01882 8.11082 5.78014 8.23094C5.64788 8.2975 5.50195 8.32077 5.35872 8.29813C5.10023 8.25728 4.86852 7.9935 4.40509 7.46593C3.509 6.44581 3.06096 5.93575 2.70418 5.96708C2.51118 5.98403 2.33068 6.0823 2.19793 6.24269C1.95254 6.53917 2.02004 7.2564 2.15505 8.69087L2.32694 10.5173C2.61018 13.5268 2.7518 15.0315 3.63876 15.9388C4.52572 16.8461 5.85507 16.8461 8.51375 16.8461H10.5536C13.2123 16.8461 14.5417 16.8461 15.4286 15.9388C16.1141 15.2376 16.3544 14.1797 16.5589 12.3461" stroke="#F4C419" stroke-width="1.2" stroke-linecap="round"/>
</svg>
