<svg width="33" height="33" viewBox="0 0 33 33" fill="none" xmlns="http://www.w3.org/2000/svg">
<path d="M16.6616 22.843V25.643" stroke="white" stroke-width="1.5" stroke-linecap="round" stroke-linejoin="round"/>
<path d="M9.99512 30.1763H23.3284V28.843C23.3284 27.3763 22.1284 26.1763 20.6618 26.1763H12.6618C11.1951 26.1763 9.99512 27.3763 9.99512 28.843V30.1763V30.1763Z" stroke="white" stroke-width="1.5" stroke-miterlimit="10"/>
<path d="M8.66162 30.1763H24.6616" stroke="white" stroke-width="1.5" stroke-linecap="round" stroke-linejoin="round"/>
<path d="M16.4618 22.1764C11.3018 22.1764 7.12842 18.003 7.12842 12.843V8.84304C7.12842 5.89637 9.51508 3.5097 12.4618 3.5097H20.4618C23.4084 3.5097 25.7951 5.89637 25.7951 8.84304V12.843C25.7951 18.003 21.6218 22.1764 16.4618 22.1764Z" stroke="white" stroke-width="1.5" stroke-linecap="round" stroke-linejoin="round"/>
<path d="M7.75497 16.3763C6.75497 16.0563 5.87497 15.4697 5.18164 14.7763C3.98164 13.443 3.18164 11.843 3.18164 9.97634C3.18164 8.10967 4.64831 6.64301 6.51497 6.64301H7.38164C7.11497 7.25634 6.98164 7.93634 6.98164 8.64301V12.643C6.98164 13.9763 7.26164 15.2297 7.75497 16.3763Z" stroke="white" stroke-width="1.5" stroke-linecap="round" stroke-linejoin="round"/>
<path d="M25.1685 16.3763C26.1685 16.0563 27.0485 15.4697 27.7418 14.7763C28.9418 13.443 29.7418 11.843 29.7418 9.97634C29.7418 8.10967 28.2751 6.64301 26.4085 6.64301H25.5418C25.8085 7.25634 25.9418 7.93634 25.9418 8.64301V12.643C25.9418 13.9763 25.6618 15.2297 25.1685 16.3763Z" stroke="white" stroke-width="1.5" stroke-linecap="round" stroke-linejoin="round"/>
</svg>
