<svg width="19" height="19" viewBox="0 0 19 19" fill="none" xmlns="http://www.w3.org/2000/svg">
<circle cx="9.38184" cy="12.6445" r="2.25" stroke="#008C99" stroke-width="0.8"/>
<path d="M9.38184 15.0894L7.68468 16.7165C7.44163 16.9495 7.3201 17.0661 7.21719 17.1064C6.98267 17.1982 6.72253 17.1196 6.59916 16.9196C6.54502 16.8318 6.52815 16.6735 6.49441 16.3568C6.47536 16.178 6.46584 16.0886 6.43692 16.0137C6.3722 15.8461 6.23618 15.7157 6.06133 15.6536C5.98323 15.6259 5.88998 15.6168 5.70349 15.5985C5.37318 15.5662 5.20802 15.55 5.11646 15.4981C4.90781 15.3798 4.8258 15.1304 4.92163 14.9056C4.96368 14.8069 5.08521 14.6904 5.32826 14.4574L6.43692 13.3945L7.21719 12.6143" stroke="#008C99" stroke-width="0.8"/>
<path d="M9.38184 15.0895L11.079 16.7166C11.322 16.9496 11.4436 17.0662 11.5465 17.1065C11.781 17.1983 12.0411 17.1197 12.1645 16.9197C12.2186 16.8319 12.2355 16.6736 12.2693 16.3569C12.2883 16.1781 12.2978 16.0887 12.3267 16.0138C12.3915 15.8462 12.5275 15.7158 12.7023 15.6537C12.7804 15.626 12.8737 15.6169 13.0602 15.5986C13.3905 15.5663 13.5556 15.5501 13.6472 15.4982C13.8559 15.3799 13.9379 15.1305 13.842 14.9057C13.8 14.807 13.6785 14.6905 13.4354 14.4575L12.3267 13.3946L11.6318 12.6997" stroke="#008C99" stroke-width="0.8"/>
<path d="M13.3716 14.1413C14.8509 14.1256 15.6754 14.0329 16.2228 13.4855C16.8818 12.8265 16.8818 11.7658 16.8818 9.64453V7.39453M5.63184 14.1432C4.00057 14.1341 3.11713 14.0618 2.54085 13.4855C1.88184 12.8265 1.88184 11.7659 1.88184 9.64453L1.88184 6.64453C1.88184 4.52321 1.88184 3.46255 2.54085 2.80354C3.19986 2.14453 4.26052 2.14453 6.38184 2.14453L12.3818 2.14453C14.5032 2.14453 15.5638 2.14453 16.2228 2.80354C16.5902 3.17096 16.7528 3.66322 16.8247 4.39453" stroke="#008C99" stroke-width="0.8" stroke-linecap="round"/>
<path d="M7.13184 5.14453L11.6318 5.14453" stroke="#008C99" stroke-width="0.8" stroke-linecap="round"/>
<path d="M5.63184 7.76953H7.13184M13.1318 7.76953H9.75684" stroke="#008C99" stroke-width="0.8" stroke-linecap="round"/>
</svg>
