<svg width="21" height="21" viewBox="0 0 21 21" fill="none" xmlns="http://www.w3.org/2000/svg">
<path d="M10.4272 20.7498C16.0882 20.7498 20.6772 16.2726 20.6772 10.7498C20.6772 5.22691 16.0882 0.749756 10.4272 0.749756C4.76633 0.749756 0.177246 5.22691 0.177246 10.7498C0.177246 16.2726 4.76633 20.7498 10.4272 20.7498Z" fill="#FFCC4D"/>
<path d="M14.6895 15.9604C14.6639 15.8609 14.0244 13.5276 10.4272 13.5276C6.82943 13.5276 6.19052 15.8609 6.16489 15.9604C6.13357 16.0809 6.18938 16.2059 6.29985 16.2681C6.41089 16.3298 6.54984 16.3115 6.64152 16.2254C6.65234 16.2148 7.75421 15.1943 10.4272 15.1943C13.1002 15.1943 14.2026 16.2148 14.2129 16.2248C14.2675 16.2776 14.3404 16.3054 14.4133 16.3054C14.4611 16.3054 14.5095 16.2937 14.5534 16.2698C14.665 16.2076 14.7208 16.0815 14.6895 15.9604Z" fill="#664500"/>
<path d="M7.01052 10.1942C7.79676 10.1942 8.43414 9.32363 8.43414 8.24974C8.43414 7.17586 7.79676 6.3053 7.01052 6.3053C6.22429 6.3053 5.58691 7.17586 5.58691 8.24974C5.58691 9.32363 6.22429 10.1942 7.01052 10.1942Z" fill="#664500"/>
<path d="M13.844 10.1942C14.6303 10.1942 15.2676 9.32363 15.2676 8.24974C15.2676 7.17586 14.6303 6.3053 13.844 6.3053C13.0578 6.3053 12.4204 7.17586 12.4204 8.24974C12.4204 9.32363 13.0578 10.1942 13.844 10.1942Z" fill="#664500"/>
</svg>
