<svg width="15" height="14" viewBox="0 0 15 14" fill="none" xmlns="http://www.w3.org/2000/svg">
<path d="M7.33537 3.5L7.33537 4.66667M7.33537 4.66667L7.33537 5.83333M7.33537 4.66667H6.16869M7.33537 4.66667L8.50203 4.66667" stroke="#F4C419" stroke-linecap="round"/>
<path d="M5.0022 8.16675H5.58553M9.66886 8.16675H7.33553" stroke="#F4C419" stroke-linecap="round"/>
<path d="M5.58545 10.5L9.08545 10.5" stroke="#F4C419" stroke-linecap="round"/>
<path d="M2.08545 8.16675V5.83341C2.08545 3.63353 2.08545 2.53358 2.76887 1.85017C3.45228 1.16675 4.55223 1.16675 6.75212 1.16675H7.91878C10.1187 1.16675 11.2186 1.16675 11.902 1.85017C12.2831 2.23119 12.4516 2.74168 12.5262 3.50008M12.5854 5.83341V8.16675C12.5854 10.3666 12.5854 11.4666 11.902 12.15C11.2186 12.8334 10.1187 12.8334 7.91878 12.8334H6.75212C4.55223 12.8334 3.45228 12.8334 2.76887 12.15C2.38784 11.769 2.21925 11.2585 2.14465 10.5001" stroke="#F4C419" stroke-linecap="round"/>
</svg>
