<svg width="19" height="19" viewBox="0 0 19 19" fill="none" xmlns="http://www.w3.org/2000/svg">
<path d="M16.9577 7.78996V11.6441C16.9577 15.4983 15.416 17.04 11.5618 17.04H6.93685C3.08268 17.04 1.54102 15.4983 1.54102 11.6441V7.01912C1.54102 3.16496 3.08268 1.62329 6.93685 1.62329H10.791" fill="#BE1D2C"/>
<path d="M16.9577 7.78996V11.6441C16.9577 15.4983 15.416 17.04 11.5618 17.04H6.93685C3.08268 17.04 1.54102 15.4983 1.54102 11.6441V7.01912C1.54102 3.16496 3.08268 1.62329 6.93685 1.62329H10.791" stroke="#BE1D2C" stroke-width="1.2" stroke-linecap="round" stroke-linejoin="round"/>
<path d="M16.9577 7.78996H13.8743C11.5618 7.78996 10.791 7.01912 10.791 4.70662V1.62329L16.9577 7.78996Z" fill="white" stroke="#BE1D2C" stroke-width="1.2" stroke-linecap="round" stroke-linejoin="round"/>
<path d="M5.10246 12.2068C4.84809 11.4129 5.14871 10.4339 5.97351 10.1641C6.41288 10.0254 6.95246 10.141 7.25309 10.565C7.5383 10.1256 8.10101 10.0254 8.53267 10.1641C9.36517 10.4339 9.65809 11.4129 9.41142 12.2068C9.0183 13.4633 7.63851 14.1185 7.25309 14.1185C6.87538 14.1108 5.51101 13.471 5.10246 12.2068Z" stroke="white" stroke-width="1.2" stroke-linecap="round" stroke-linejoin="round"/>
</svg>
