<svg width="19" height="19" viewBox="0 0 19 19" fill="none" xmlns="http://www.w3.org/2000/svg">
<path d="M16.9583 8.05937V11.9135C16.9583 15.7677 15.4166 17.3094 11.5625 17.3094H6.93746C3.08329 17.3094 1.54163 15.7677 1.54163 11.9135V7.28853C1.54163 3.43437 3.08329 1.8927 6.93746 1.8927H10.7916" stroke="#292D32" stroke-width="1.2" stroke-linecap="round" stroke-linejoin="round"/>
<path d="M16.9583 8.05937H13.875C11.5625 8.05937 10.7916 7.28853 10.7916 4.97603V1.8927L16.9583 8.05937Z" stroke="#292D32" stroke-width="1.2" stroke-linecap="round" stroke-linejoin="round"/>
<path d="M5.10295 12.4762C4.84858 11.6823 5.1492 10.7033 5.97399 10.4335C6.41337 10.2948 6.95295 10.4104 7.25358 10.8344C7.53879 10.395 8.10149 10.2948 8.53316 10.4335C9.36566 10.7033 9.65858 11.6823 9.41191 12.4762C9.01879 13.7327 7.63899 14.3879 7.25358 14.3879C6.87587 14.3802 5.51149 13.7404 5.10295 12.4762Z" stroke="#292D32" stroke-width="1.2" stroke-linecap="round" stroke-linejoin="round"/>
</svg>
