<svg width="46" height="43" viewBox="0 0 46 43" fill="none" xmlns="http://www.w3.org/2000/svg">
<path d="M39.4648 12.3317V29.8317C39.4648 35.0817 36.6523 38.5817 30.0898 38.5817H15.0898C8.52734 38.5817 5.71484 35.0817 5.71484 29.8317V12.3317C5.71484 7.08167 8.52734 3.58167 15.0898 3.58167H30.0898C36.6523 3.58167 39.4648 7.08167 39.4648 12.3317Z" stroke="#983591" stroke-width="2" stroke-miterlimit="10" stroke-linecap="round" stroke-linejoin="round"/>
<path d="M27.2773 7.95667V11.4567C27.2773 13.3817 28.9648 14.9567 31.0273 14.9567H34.7773" stroke="#983591" stroke-width="2" stroke-miterlimit="10" stroke-linecap="round" stroke-linejoin="round"/>
<path d="M14.115 27.1891C13.4962 25.3866 14.2274 23.1642 16.2337 22.5517C17.3024 22.2367 18.6149 22.4991 19.3462 23.4616C20.0399 22.4641 21.4087 22.2367 22.4587 22.5517C24.4837 23.1642 25.1962 25.3866 24.5962 27.1891C23.64 30.0416 20.2837 31.5291 19.3462 31.5291C18.4274 31.5116 15.1087 30.0591 14.115 27.1891Z" stroke="#983591" stroke-width="2" stroke-linecap="round" stroke-linejoin="round"/>
</svg>
