<svg width="16" height="16" viewBox="0 0 16 16" fill="none" xmlns="http://www.w3.org/2000/svg">
<g clip-path="url(#clip0_645_1861)">
<circle cx="7.53174" cy="8.43896" r="1.875" stroke="#1AB6F1"/>
<path d="M9.09424 5.31396L10.0317 4.06396" stroke="#1AB6F1" stroke-linecap="round"/>
<path d="M11.9067 5.31396L12.5317 4.68896" stroke="#1AB6F1" stroke-linecap="round"/>
<path d="M7.53174 4.06396L6.90674 3.43896" stroke="#1AB6F1" stroke-linecap="round"/>
<path d="M6.59424 5.31396L5.74047 5.54273" stroke="#1AB6F1" stroke-linecap="round"/>
<path d="M4.40674 4.06396L3.78174 3.43896" stroke="#1AB6F1" stroke-linecap="round"/>
<path d="M4.27702 6.65381L3.91125 5.84916" stroke="#1AB6F1" stroke-linecap="round"/>
<path d="M7.84424 14.689L7.86712 15.1884C8.0516 15.18 8.21639 15.0705 8.29573 14.9038C8.37508 14.737 8.35605 14.5401 8.24625 14.3917L7.84424 14.689ZM8.12171 13.2062L8.41901 13.6082L8.12171 13.2062ZM12.2059 10.1858L11.9086 9.78379H11.9086L12.2059 10.1858ZM9.16867 12.7235L9.57068 12.4262H9.57068L9.16867 12.7235ZM9.60637 10.9422L9.90367 11.3443L9.60637 10.9422ZM11.4377 11.0455L11.8397 10.7481L11.8397 10.7481L11.4377 11.0455ZM13.5483 10.137L13.224 10.5175C13.3537 10.628 13.5307 10.6649 13.6938 10.6153C13.8568 10.5657 13.9834 10.4365 14.0296 10.2725L13.5483 10.137ZM11.6467 11.3281L11.2447 11.6254C11.3312 11.7424 11.4645 11.8159 11.6096 11.8267C11.7547 11.8375 11.8974 11.7846 12.0003 11.6817L11.6467 11.3281ZM11.7101 11.2647L12.0637 11.6183C12.1779 11.504 12.2299 11.3416 12.2032 11.1822L11.7101 11.2647ZM9.16867 12.9958L9.01848 13.4728C9.19626 13.5287 9.39042 13.4812 9.52222 13.3494L9.16867 12.9958ZM9.28447 12.88L9.63802 13.2336C9.81306 13.0586 9.83367 12.7818 9.68648 12.5827L9.28447 12.88ZM1.89378 12.1518C2.04586 12.3823 2.35599 12.4459 2.58648 12.2938C2.81698 12.1417 2.88055 11.8316 2.72847 11.6011L1.89378 12.1518ZM5.02264 13.6142C4.77426 13.4936 4.47509 13.5971 4.35442 13.8455C4.23376 14.0939 4.33729 14.393 4.58568 14.5137L5.02264 13.6142ZM1.78174 8.43897C1.78174 5.26333 4.3561 2.68896 7.53174 2.68896V1.68896C3.80382 1.68896 0.781738 4.71104 0.781738 8.43897H1.78174ZM7.53174 2.68896C10.7074 2.68896 13.2817 5.26333 13.2817 8.43897H14.2817C14.2817 4.71104 11.2597 1.68896 7.53174 1.68896V2.68896ZM8.24625 14.3917C8.11139 14.2093 8.12768 13.8237 8.41901 13.6082L7.82441 12.8042C7.11323 13.3302 6.96136 14.336 7.44223 14.9863L8.24625 14.3917ZM9.57068 12.4262C9.39934 12.1945 9.42601 11.6975 9.90367 11.3443L9.30906 10.5402C8.53359 11.1137 8.16833 12.2117 8.76666 13.0208L9.57068 12.4262ZM9.90367 11.3443C10.3813 10.991 10.8643 11.1111 11.0357 11.3428L11.8397 10.7481C11.2414 9.9391 10.0845 9.96675 9.30906 10.5402L9.90367 11.3443ZM12.5032 10.5878C12.8049 10.3647 13.1037 10.415 13.224 10.5175L13.8727 9.75643C13.3173 9.28306 12.4912 9.35293 11.9086 9.78379L12.5032 10.5878ZM13.2817 8.43897C13.2817 8.98123 13.2068 9.50518 13.067 10.0014L14.0296 10.2725C14.194 9.68891 14.2817 9.07378 14.2817 8.43897H13.2817ZM7.82135 14.1895C7.73865 14.1933 7.65971 14.189 7.53174 14.189V15.189C7.59879 15.189 7.75698 15.1935 7.86712 15.1884L7.82135 14.1895ZM11.0357 11.3428L11.2447 11.6254L12.0487 11.0308L11.8397 10.7481L11.0357 11.3428ZM12.2032 11.1822C12.1768 11.024 12.2534 10.7725 12.5032 10.5878L11.9086 9.78379C11.4064 10.1552 11.1188 10.7605 11.217 11.3472L12.2032 11.1822ZM12.0003 11.6817L12.0637 11.6183L11.3566 10.9112L11.2932 10.9746L12.0003 11.6817ZM8.41901 13.6082C8.63512 13.4484 8.86744 13.4252 9.01848 13.4728L9.31885 12.5189C8.82889 12.3646 8.26782 12.4763 7.82441 12.8042L8.41901 13.6082ZM8.76666 13.0208L8.88246 13.1774L9.68648 12.5827L9.57068 12.4262L8.76666 13.0208ZM9.52222 13.3494L9.63802 13.2336L8.93092 12.5265L8.81511 12.6423L9.52222 13.3494ZM2.72847 11.6011C2.13007 10.6941 1.78174 9.60798 1.78174 8.43897H0.781738C0.781738 9.80972 1.19086 11.0864 1.89378 12.1518L2.72847 11.6011ZM7.53174 14.189C6.63116 14.189 5.78027 13.9823 5.02264 13.6142L4.58568 14.5137C5.4765 14.9465 6.47651 15.189 7.53174 15.189V14.189Z" fill="#1AB6F1"/>
<path d="M1.28174 9.06396C1.28174 9.06396 2.65727 10.314 3.78174 10.314C4.53923 10.314 5.41066 9.74671 5.89877 9.37646" stroke="#1AB6F1"/>
<path d="M10.0317 10.6263C9.71924 10.3138 9.0763 10.0882 8.78174 9.82861" stroke="#1AB6F1"/>
<path d="M10.4378 6.5494L10.4793 7.43231" stroke="#1AB6F1" stroke-linecap="round"/>
<path d="M12.9553 7.2421L11.9065 8.16576" stroke="#1AB6F1" stroke-linecap="round"/>
<path d="M3.57222 8.83967L4.09424 8.1264" stroke="#1AB6F1" stroke-linecap="round"/>
<path d="M2.33357 7.40749L2.2844 6.52497" stroke="#1AB6F1" stroke-linecap="round"/>
</g>
<defs>
<clipPath id="clip0_645_1861">
<rect width="15" height="15" fill="white" transform="translate(0.0317383 0.938965)"/>
</clipPath>
</defs>
</svg>
