<svg width="44" height="44" viewBox="0 0 44 44" fill="none" xmlns="http://www.w3.org/2000/svg">
<path d="M16.2155 40.2215H26.9655C35.9238 40.2215 39.5072 36.6382 39.5072 27.6798V16.9298C39.5072 7.97152 35.9238 4.38818 26.9655 4.38818H16.2155C7.25716 4.38818 3.67383 7.97152 3.67383 16.9298V27.6798C3.67383 36.6382 7.25716 40.2215 16.2155 40.2215Z" stroke="#F4C419" stroke-width="2" stroke-linecap="round" stroke-linejoin="round"/>
<path d="M27.8613 18.2736C29.3456 18.2736 30.5488 17.0703 30.5488 15.5861C30.5488 14.1018 29.3456 12.8986 27.8613 12.8986C26.3771 12.8986 25.1738 14.1018 25.1738 15.5861C25.1738 17.0703 26.3771 18.2736 27.8613 18.2736Z" stroke="#F4C419" stroke-width="2" stroke-miterlimit="10" stroke-linecap="round" stroke-linejoin="round"/>
<path d="M15.3193 18.2736C16.8036 18.2736 18.0068 17.0703 18.0068 15.5861C18.0068 14.1018 16.8036 12.8986 15.3193 12.8986C13.8351 12.8986 12.6318 14.1018 12.6318 15.5861C12.6318 17.0703 13.8351 18.2736 15.3193 18.2736Z" stroke="#F4C419" stroke-width="2" stroke-miterlimit="10" stroke-linecap="round" stroke-linejoin="round"/>
<path d="M15.1403 24.634H28.0403C28.9362 24.634 29.6528 25.3507 29.6528 26.2465C29.6528 30.7078 26.0516 34.309 21.5903 34.309C17.1291 34.309 13.5278 30.7078 13.5278 26.2465C13.5278 25.3507 14.2445 24.634 15.1403 24.634Z" stroke="#F4C419" stroke-width="2" stroke-miterlimit="10" stroke-linecap="round" stroke-linejoin="round"/>
</svg>
