<svg width="20" height="21" viewBox="0 0 20 21" fill="none" xmlns="http://www.w3.org/2000/svg">
<path d="M7.30051 2.59131H5.11256C3.95652 2.59131 3.00995 3.60156 3.00995 4.84558V15.3656C3.00995 16.6096 3.94876 17.6198 5.11256 17.6198H14.8807C16.0367 17.6198 16.9833 16.6096 16.9833 15.3656V7.85129C16.9833 6.60727 16.0445 5.59701 14.8807 5.59701H10.435C10.1712 5.59701 9.93067 5.43838 9.80654 5.17955L9.17809 3.83533C8.82119 3.07556 8.09189 2.59131 7.30051 2.59131V2.59131Z" stroke="black" stroke-opacity="0.3" stroke-width="0.834918" stroke-linecap="round" stroke-linejoin="round"/>
<path d="M14.8963 5.59705V4.82893C14.8807 4.00236 14.26 3.34277 13.4919 3.34277H9.30225" stroke="black" stroke-opacity="0.3" stroke-width="0.834918" stroke-linecap="round" stroke-linejoin="round"/>
<path d="M6.50134 13.8628H9.30221" stroke="black" stroke-opacity="0.3" stroke-width="0.834918" stroke-linecap="round" stroke-linejoin="round"/>
</svg>
