<svg width="20" height="21" viewBox="0 0 20 21" fill="none" xmlns="http://www.w3.org/2000/svg">
<path fill-rule="evenodd" clip-rule="evenodd" d="M8.40006 15.845H3.14923C2.80423 15.845 2.52423 15.565 2.52423 15.22C2.52423 14.875 2.80423 14.595 3.14923 14.595H8.40006C8.74506 14.595 9.02506 14.875 9.02506 15.22C9.02506 15.565 8.74506 15.845 8.40006 15.845Z" fill="white"/>
<path fill-rule="evenodd" clip-rule="evenodd" d="M15.9924 7.76801H10.7424C10.3974 7.76801 10.1174 7.48801 10.1174 7.14301C10.1174 6.79801 10.3974 6.51801 10.7424 6.51801H15.9924C16.3374 6.51801 16.6174 6.79801 16.6174 7.14301C16.6174 7.48801 16.3374 7.76801 15.9924 7.76801Z" fill="white"/>
<mask id="mask0_29_238" style="mask-type:alpha" maskUnits="userSpaceOnUse" x="2" y="4" width="6" height="6">
<path fill-rule="evenodd" clip-rule="evenodd" d="M2.5 4.51801H7.68817V9.67767H2.5V4.51801Z" fill="white"/>
</mask>
<g mask="url(#mask0_29_238)">
<path fill-rule="evenodd" clip-rule="evenodd" d="M5.09398 5.7677C4.35315 5.7677 3.74982 6.36437 3.74982 7.09853C3.74982 7.83187 4.35315 8.4277 5.09398 8.4277C5.83565 8.4277 6.43815 7.83187 6.43815 7.09853C6.43815 6.36437 5.83565 5.7677 5.09398 5.7677ZM5.09398 9.6777C3.66398 9.6777 2.49982 8.52103 2.49982 7.09853C2.49982 5.67603 3.66398 4.5177 5.09398 4.5177C6.52482 4.5177 7.68815 5.67603 7.68815 7.09853C7.68815 8.52103 6.52482 9.6777 5.09398 9.6777Z" fill="white"/>
</g>
<path fill-rule="evenodd" clip-rule="evenodd" d="M14.4898 13.8577C13.7481 13.8577 13.1448 14.4543 13.1448 15.1877C13.1448 15.9218 13.7481 16.5177 14.4898 16.5177C15.2306 16.5177 15.8331 15.9218 15.8331 15.1877C15.8331 14.4543 15.2306 13.8577 14.4898 13.8577ZM14.4898 17.7677C13.0589 17.7677 11.8948 16.6102 11.8948 15.1877C11.8948 13.7652 13.0589 12.6077 14.4898 12.6077C15.9198 12.6077 17.0831 13.7652 17.0831 15.1877C17.0831 16.6102 15.9198 17.7677 14.4898 17.7677Z" fill="white"/>
</svg>
