<svg width="74" height="22" viewBox="0 0 74 22" fill="none" xmlns="http://www.w3.org/2000/svg">
<path d="M33.2644 11.1034H35.3574V9.06245H36.3714V11.1034H38.4514V12.1174H36.3844V14.1584H35.3574V12.1174H33.2644V11.1034ZM40.7774 14.4964C40.8034 14.5138 40.8597 14.5484 40.9464 14.6004C41.0331 14.6438 41.1414 14.6914 41.2714 14.7434C41.4101 14.7954 41.5617 14.8431 41.7264 14.8864C41.8997 14.9211 42.0817 14.9384 42.2724 14.9384C42.6364 14.9384 42.9527 14.8648 43.2214 14.7174C43.4901 14.5614 43.7111 14.3578 43.8844 14.1064C44.0664 13.8551 44.2007 13.5648 44.2874 13.2354C44.3827 12.8974 44.4391 12.5508 44.4564 12.1954C44.3004 12.3254 44.0664 12.4641 43.7544 12.6114C43.4511 12.7588 43.0437 12.8324 42.5324 12.8324C42.1424 12.8324 41.7914 12.7674 41.4794 12.6374C41.1674 12.4988 40.8987 12.3124 40.6734 12.0784C40.4567 11.8358 40.2877 11.5498 40.1664 11.2204C40.0537 10.8911 39.9974 10.5271 39.9974 10.1284C39.9974 9.72111 40.0667 9.34845 40.2054 9.01045C40.3441 8.67245 40.5347 8.38211 40.7774 8.13945C41.0201 7.88811 41.3061 7.69745 41.6354 7.56745C41.9734 7.42878 42.3374 7.35945 42.7274 7.35945C43.6461 7.35945 44.3611 7.68878 44.8724 8.34745C45.3924 8.99745 45.6524 9.98111 45.6524 11.2984C45.6524 12.0178 45.5787 12.6678 45.4314 13.2484C45.2927 13.8204 45.0804 14.3101 44.7944 14.7174C44.5084 15.1161 44.1531 15.4281 43.7284 15.6534C43.3037 15.8701 42.8097 15.9784 42.2464 15.9784C42.0211 15.9784 41.8044 15.9568 41.5964 15.9134C41.3971 15.8788 41.2107 15.8354 41.0374 15.7834C40.8641 15.7314 40.7124 15.6751 40.5824 15.6144C40.4524 15.5538 40.3484 15.4974 40.2704 15.4454L40.7774 14.4964ZM44.4694 11.1424C44.4694 10.2931 44.3307 9.62578 44.0534 9.14045C43.7847 8.65511 43.3471 8.41245 42.7404 8.41245C42.5324 8.41245 42.3287 8.45145 42.1294 8.52945C41.9387 8.59878 41.7697 8.70711 41.6224 8.85445C41.4751 9.00178 41.3537 9.18378 41.2584 9.40045C41.1631 9.61711 41.1154 9.86411 41.1154 10.1414C41.1154 10.3668 41.1457 10.5791 41.2064 10.7784C41.2671 10.9691 41.3581 11.1381 41.4794 11.2854C41.6094 11.4328 41.7741 11.5498 41.9734 11.6364C42.1727 11.7231 42.4154 11.7664 42.7014 11.7664C43.1347 11.7664 43.4857 11.7058 43.7544 11.5844C44.0317 11.4631 44.2701 11.3158 44.4694 11.1424ZM52.1644 8.84145C52.1384 8.82411 52.0864 8.79378 52.0084 8.75045C51.9391 8.70711 51.8437 8.66378 51.7224 8.62045C51.6011 8.56845 51.4581 8.52511 51.2934 8.49045C51.1374 8.44711 50.9641 8.42545 50.7734 8.42545C50.4094 8.42545 50.0887 8.50345 49.8114 8.65945C49.5341 8.81545 49.3001 9.02345 49.1094 9.28345C48.9187 9.54345 48.7714 9.84245 48.6674 10.1804C48.5634 10.5098 48.5071 10.8521 48.4984 11.2074C48.6891 11.0774 48.9361 10.9388 49.2394 10.7914C49.5427 10.6354 49.9284 10.5574 50.3964 10.5574C51.1851 10.5574 51.8004 10.7914 52.2424 11.2594C52.6931 11.7274 52.9184 12.3904 52.9184 13.2484C52.9184 13.6558 52.8491 14.0284 52.7104 14.3664C52.5804 14.7044 52.3941 14.9948 52.1514 15.2374C51.9174 15.4801 51.6357 15.6664 51.3064 15.7964C50.9771 15.9351 50.6174 16.0044 50.2274 16.0044C49.3087 16.0044 48.5894 15.6794 48.0694 15.0294C47.5581 14.3794 47.3024 13.3958 47.3024 12.0784C47.3024 11.3504 47.3761 10.6961 47.5234 10.1154C47.6794 9.53478 47.9047 9.04078 48.1994 8.63345C48.5027 8.22611 48.8711 7.91411 49.3044 7.69745C49.7377 7.48078 50.2404 7.37245 50.8124 7.37245C51.2544 7.37245 51.6357 7.43745 51.9564 7.56745C52.2857 7.69745 52.5327 7.81445 52.6974 7.91845L52.1644 8.84145ZM48.4854 12.2344C48.4854 13.0924 48.6197 13.7641 48.8884 14.2494C49.1571 14.7261 49.5991 14.9644 50.2144 14.9644C50.4224 14.9644 50.6217 14.9254 50.8124 14.8474C51.0031 14.7694 51.1721 14.6568 51.3194 14.5094C51.4667 14.3621 51.5837 14.1801 51.6704 13.9634C51.7571 13.7468 51.8004 13.4998 51.8004 13.2224C51.8004 12.7544 51.6791 12.3688 51.4364 12.0654C51.2024 11.7534 50.8167 11.5974 50.2794 11.5974C49.8634 11.5974 49.5081 11.6624 49.2134 11.7924C48.9274 11.9138 48.6847 12.0611 48.4854 12.2344ZM59.2484 8.84145C59.2224 8.82411 59.1704 8.79378 59.0924 8.75045C59.023 8.70711 58.9277 8.66378 58.8064 8.62045C58.685 8.56845 58.542 8.52511 58.3774 8.49045C58.2214 8.44711 58.048 8.42545 57.8574 8.42545C57.4934 8.42545 57.1727 8.50345 56.8954 8.65945C56.618 8.81545 56.384 9.02345 56.1934 9.28345C56.0027 9.54345 55.8554 9.84245 55.7514 10.1804C55.6474 10.5098 55.591 10.8521 55.5824 11.2074C55.773 11.0774 56.02 10.9388 56.3234 10.7914C56.6267 10.6354 57.0124 10.5574 57.4804 10.5574C58.269 10.5574 58.8844 10.7914 59.3264 11.2594C59.777 11.7274 60.0024 12.3904 60.0024 13.2484C60.0024 13.6558 59.933 14.0284 59.7944 14.3664C59.6644 14.7044 59.478 14.9948 59.2354 15.2374C59.0014 15.4801 58.7197 15.6664 58.3904 15.7964C58.061 15.9351 57.7014 16.0044 57.3114 16.0044C56.3927 16.0044 55.6734 15.6794 55.1534 15.0294C54.642 14.3794 54.3864 13.3958 54.3864 12.0784C54.3864 11.3504 54.46 10.6961 54.6074 10.1154C54.7634 9.53478 54.9887 9.04078 55.2834 8.63345C55.5867 8.22611 55.955 7.91411 56.3884 7.69745C56.8217 7.48078 57.3244 7.37245 57.8964 7.37245C58.3384 7.37245 58.7197 7.43745 59.0404 7.56745C59.3697 7.69745 59.6167 7.81445 59.7814 7.91845L59.2484 8.84145ZM55.5694 12.2344C55.5694 13.0924 55.7037 13.7641 55.9724 14.2494C56.241 14.7261 56.683 14.9644 57.2984 14.9644C57.5064 14.9644 57.7057 14.9254 57.8964 14.8474C58.087 14.7694 58.256 14.6568 58.4034 14.5094C58.5507 14.3621 58.6677 14.1801 58.7544 13.9634C58.841 13.7468 58.8844 13.4998 58.8844 13.2224C58.8844 12.7544 58.763 12.3688 58.5204 12.0654C58.2864 11.7534 57.9007 11.5974 57.3634 11.5974C56.9474 11.5974 56.592 11.6624 56.2974 11.7924C56.0114 11.9138 55.7687 12.0611 55.5694 12.2344Z" fill="#333333" fill-opacity="0.5"/>
<path d="M73 0.783447L73 21.7834" stroke="black" stroke-opacity="0.15"/>
<g clip-path="url(#clip0_142_390)">
<path d="M0 3.78345H24V19.7834H0V3.78345Z" fill="#006C35"/>
<path d="M15.5093 15.677H15.1759C15.1389 15.7256 15.081 15.7834 15.0486 15.7834C15.0093 15.7834 14.9028 15.6747 14.9028 15.6353C14.9028 15.6052 14.9537 15.5473 15 15.5103V15.42H8.95833C8.16204 15.42 7.7662 15.4131 7.5 15.1469H15V15.0566C14.956 15.0219 14.9028 14.9617 14.9028 14.9316C14.9028 14.8922 15.0093 14.7834 15.0486 14.7834C15.088 14.7834 15.1944 14.8922 15.1944 14.9316C15.1944 14.9617 15.1412 15.0219 15.0972 15.0566V15.1469H16.1157C16.3889 15.1469 16.5 15.17 16.5 15.42C16.5 15.6862 16.4282 15.7348 16.3148 15.7348C16.2755 15.7348 16.2106 15.7325 16.162 15.677H15.7662C15.7557 15.6939 15.7379 15.7085 15.7151 15.7187C15.6922 15.7289 15.6653 15.7344 15.6377 15.7344C15.6102 15.7344 15.5833 15.7289 15.5604 15.7187C15.5375 15.7085 15.5197 15.6939 15.5093 15.677ZM15.7662 15.5936H16.1157C16.0972 15.5427 16.0972 15.4895 16.1157 15.42H15.0972V15.5103C15.1227 15.5288 15.1574 15.5682 15.1759 15.5936H15.5093C15.5197 15.5766 15.5375 15.5621 15.5604 15.5519C15.5833 15.5417 15.6102 15.5362 15.6377 15.5362C15.6653 15.5362 15.6922 15.5417 15.7151 15.5519C15.7379 15.5621 15.7557 15.5766 15.7662 15.5936Z" fill="white"/>
<path d="M16.3426 11.4316C16.3657 11.4594 16.3796 11.4848 16.3403 11.5311C16.3032 11.5635 16.2778 11.5821 16.2384 11.6145C16.2222 11.6422 16.2106 11.6862 16.2639 11.7001C16.3657 11.7279 16.5532 11.6075 16.5532 11.6052C16.5926 11.5774 16.5787 11.5265 16.5764 11.5265C16.5532 11.5034 16.5046 11.5172 16.4722 11.5126C16.456 11.5126 16.4468 11.4825 16.4699 11.4385C16.4907 11.4108 16.5 11.3946 16.5139 11.3622C16.5278 11.3297 16.5139 11.3066 16.4583 11.2881C16.4005 11.2788 16.3773 11.2834 16.3148 11.2881C16.2801 11.295 16.2685 11.3112 16.2616 11.3506C16.2639 11.4108 16.3032 11.4061 16.3426 11.4316ZM15.9028 10.001C15.8704 10.045 15.8472 10.0797 15.9097 10.1145C15.9745 10.1469 16.0718 10.2372 16.0301 10.339C16.0069 10.4177 16.0301 10.4802 16.1018 10.3668C16.1759 10.2487 16.1181 10.1075 16.0463 10.0172C15.9838 9.93854 15.9421 9.95474 15.9028 10.001ZM17.8518 8.3853C17.9398 8.46169 17.9884 8.43854 17.9329 8.30891C17.8681 8.17928 17.8056 8.04271 17.7477 7.92002C17.6852 7.79039 17.669 7.82048 17.5972 7.91308C17.5162 8.00335 17.5093 8.0728 17.5393 8.12604C17.6921 9.33669 17.7639 9.96863 17.7801 10.3344C17.8125 10.8668 17.6759 11.1654 17.1319 11.508C16.956 11.6214 16.7569 11.751 17.1806 11.6515C17.5764 11.5566 18 11.3066 18 10.3506C18 9.63067 17.8333 8.85984 17.8518 8.3853ZM17.2037 8.13993C17.1551 8.21632 17.1643 8.23252 17.2199 8.31585C17.2755 8.40845 17.3241 8.57511 17.3241 8.70474C17.3241 8.83437 17.3727 8.81817 17.3958 8.6978C17.4213 8.58206 17.412 8.35521 17.3403 8.19548C17.2685 8.0265 17.2431 8.08669 17.2037 8.13993ZM17.669 10.6608C17.6528 10.5543 17.6204 10.4478 17.4768 10.2441C17.3333 10.045 17.2037 9.86215 17.0764 9.68623C17.037 9.23021 16.9792 8.74178 16.9792 8.48484C17.044 8.54502 17.0926 8.48484 17.0602 8.3853C17.0278 8.28576 16.963 8.01956 16.9167 7.90613C16.875 7.79734 16.8287 7.82048 16.7639 7.92002C16.7083 8.01956 16.669 8.06585 16.7083 8.13993C16.7245 8.58206 16.787 9.0103 16.8611 9.39687C16.7315 9.23021 16.6111 9.07048 16.5 8.92465C16.4931 8.75798 16.4768 8.59132 16.4676 8.42234C16.5393 8.47558 16.5718 8.46169 16.5324 8.36215C16.5 8.25567 16.412 8.03345 16.3727 7.93623C16.331 7.83669 16.3079 7.83669 16.2523 7.91308C16.1643 8.04271 16.1389 8.13298 16.213 8.25567C16.2199 8.36215 16.2361 8.47558 16.2431 8.57511C16.1713 8.48484 16.1088 8.39224 16.0509 8.30891C16.1227 8.34595 16.1806 8.28576 16.0995 8.21632C16.0278 8.14919 15.875 8.03345 15.8125 7.95011C15.7407 7.86678 15.6759 7.86678 15.6759 7.94317C15.6759 8.01956 15.6829 8.08669 15.6759 8.15613C15.6597 8.21632 15.6597 8.27882 15.7546 8.3853C15.9398 8.59826 16.1157 8.81817 16.2847 9.02419C16.3472 9.78576 16.3889 10.2742 16.3727 10.5774C16.3634 10.7603 16.3009 10.8668 16.1968 10.8969C16.0926 10.9362 15.9884 10.8668 15.8912 10.7302C15.7153 10.4872 15.6528 10.5334 15.5162 10.7464C15.3866 10.9432 15.2986 11.1122 15.2269 11.2557C15.1644 11.3922 15.0509 11.5149 14.9468 11.3321C14.8519 11.1492 14.8356 10.9432 14.8426 10.7997C14.8426 10.6538 14.8194 10.5404 14.7639 10.7696C14.6204 11.3321 14.7083 11.4547 14.8681 11.5751C15.0671 11.7441 15.1319 11.758 15.2361 11.6145C15.4444 11.339 15.5 11.0959 15.6204 10.9594C15.7153 10.8529 15.7153 10.9362 15.7639 10.9895C15.8843 11.133 15.9884 11.1862 16.1551 11.2094C16.3241 11.2395 16.6273 11.1029 16.6042 10.5705C16.588 10.251 16.5648 9.81585 16.5324 9.35289C16.6921 9.56585 16.8356 9.75567 16.9491 9.90845C17.0046 10.2117 17.037 10.4872 17.0208 10.7071C17.0046 10.9594 17.0602 10.9594 17.1157 10.7001C17.1319 10.5936 17.1319 10.3714 17.1088 10.1052C17.3241 10.3807 17.4514 10.5635 17.5393 10.6932C17.6366 10.8529 17.6921 10.9895 17.669 10.6608ZM15.4745 10.0612C15.4745 10.008 15.5 9.99178 15.5949 9.91539C15.6759 9.85521 15.9005 9.70243 15.9722 9.63298C16.044 9.56585 16.0995 9.50335 16.1157 9.589C16.1227 9.67234 16.1389 9.70243 16.0509 9.74873C15.963 9.78576 15.7315 9.92234 15.6597 9.97558C15.5787 10.0381 15.4745 10.1145 15.4745 10.0612ZM15.5 9.12373C15.4838 9.19317 15.3866 9.19317 15.3958 9.11678C15.4028 9.04039 15.3958 9.05428 15.3958 8.9941C15.3866 8.93391 15.4676 8.89456 15.5069 8.9478C15.5556 9.00104 15.6366 9.17002 15.6597 9.23021C15.6921 9.29039 15.7083 9.2765 15.7083 9.19317C15.6991 9.09363 15.6829 9.00104 15.6921 8.93391C15.6991 8.89456 15.7245 8.84826 15.7708 8.81123C15.8287 8.77419 15.8588 8.76493 15.8843 8.83437C15.9005 8.89456 15.9468 8.9015 15.9236 8.95706C15.8912 9.03113 15.8194 8.88067 15.7708 8.98715C15.7477 9.06354 15.7708 9.2765 15.7639 9.35289C15.7639 9.42002 15.7315 9.51956 15.6759 9.40613C15.6366 9.32974 15.5787 9.20011 15.5 9.12373ZM14.9468 8.50567C15.0602 8.55891 15.1806 8.59132 15.0926 8.46169C15.0023 8.339 14.9306 8.13298 14.8843 7.98021C14.8264 7.82974 14.8125 7.83669 14.7222 7.96632C14.588 8.16308 14.7083 8.35521 14.7384 8.58206C14.8519 9.39687 14.963 10.2279 14.9954 10.4478C15.0278 10.6932 15.0671 10.8529 15.0023 11.1191C14.9792 11.2024 15.0116 11.2256 15.0671 11.126C15.2917 10.7233 15.1389 10.3714 15.1157 10.1446C15.0764 9.79271 14.9468 8.86447 14.9236 8.49178M14.3958 8.46863C14.4583 8.52187 14.5324 8.52187 14.4907 8.40845C14.4514 8.29271 14.419 8.15613 14.3796 8.0265C14.3403 7.89687 14.3148 7.86678 14.2662 7.92697C14.2106 7.99641 14.1713 8.01956 14.1319 8.06585C14.0903 8.10289 14.0833 8.18623 14.1319 8.26261C14.3079 9.41308 14.3148 9.92234 14.3403 10.3506C14.3634 10.7765 14.4282 10.9733 14.1481 11.2626C13.8426 11.5751 13.6597 11.6515 13.5231 11.6816C13.3704 11.7233 13.3079 11.7834 13.4722 11.7834C14.0093 11.7834 14.0625 11.6399 14.2824 11.4084C14.4606 11.2209 14.5463 10.9825 14.5324 10.4177C14.5162 9.42697 14.3704 9.00104 14.3958 8.46863ZM12.3866 11.3784C12.4676 11.3321 12.5069 11.295 12.5694 11.2719C12.6343 11.2395 12.6829 11.2487 12.6343 11.3784C12.5856 11.5288 12.6111 11.5751 12.7153 11.5381C12.8102 11.508 12.8657 11.4686 12.9468 11.4385C13.0185 11.4084 13.0995 11.4084 12.9861 11.4918C12.8981 11.5612 12.7708 11.6515 12.6991 11.6677C12.5394 11.7047 12.4583 11.6446 12.4907 11.5219C12.5231 11.4084 12.5463 11.3622 12.4514 11.4015C12.338 11.4455 12.3472 11.4015 12.3866 11.3784ZM13.6759 8.78808C13.706 8.88067 13.7477 8.92465 13.7708 8.81123C13.787 8.71169 13.8194 8.6816 13.8356 8.78808C13.8588 8.89456 13.9236 8.88067 13.9398 8.78113C13.963 8.6816 13.9954 8.62835 14.0116 8.73484C14.0278 8.84826 14.0185 8.88761 14.0023 8.92465C13.9954 8.95706 13.9306 8.9941 13.8819 8.9478C13.8264 8.9015 13.8102 8.9015 13.7708 8.94085C13.6829 9.01724 13.6505 8.964 13.6343 8.85752C13.6273 8.76493 13.6597 8.72789 13.6759 8.78808ZM14.2106 10.7071C14.1389 10.3645 13.8102 9.81585 13.3218 9.10058C13.3079 8.91076 13.2986 8.73484 13.2986 8.57511C13.3704 8.6515 13.419 8.60521 13.3958 8.50567C13.3472 8.33206 13.2755 8.18623 13.1875 7.98947C13.1551 7.90613 13.0671 7.88298 13.0278 8.00335C12.9699 8.14919 12.963 8.17928 13.0347 8.27882C13.0278 8.3853 13.0671 8.56817 13.0833 8.73484C12.9954 8.61215 12.8819 8.46169 12.794 8.33206C12.9306 8.3853 13.0116 8.34595 12.8912 8.22558C12.7708 8.09595 12.6019 7.96632 12.4977 7.87373C12.3935 7.78345 12.3472 7.84363 12.3634 7.92697C12.3704 8.01261 12.3796 8.0728 12.3704 8.13993C12.3634 8.20937 12.3866 8.25567 12.4907 8.29271C12.6991 8.55197 12.9074 8.81817 13.0995 9.09363C13.1227 9.32048 13.1713 9.5728 13.1944 9.77882C13.2593 10.2649 13.3542 10.8969 13.2755 11.1723C13.2106 11.3784 13.2755 11.4686 13.3796 11.1561C13.4745 10.8436 13.4653 10.5473 13.4028 10.0821C13.3773 9.9015 13.3704 9.67234 13.3472 9.45937C13.6829 9.95243 13.9861 10.4247 14.1227 10.7534C14.1944 10.9293 14.2593 10.9663 14.2106 10.7071ZM13.6111 7.92697C13.5787 7.98947 13.5556 8.03345 13.6181 8.07974C13.6829 8.12604 13.7801 8.24873 13.7384 8.3853C13.7153 8.49178 13.7384 8.57511 13.8102 8.42234C13.8819 8.26261 13.8264 8.0728 13.7546 7.95011C13.6898 7.84363 13.6505 7.86678 13.6111 7.92697ZM11.2431 9.589C11.2269 9.69548 11.25 9.76261 11.2894 9.81585C11.331 9.8691 11.4097 9.86215 11.4352 9.80197C11.4583 9.73252 11.4745 9.72558 11.5231 9.77882C11.5787 9.83206 11.7616 9.78576 11.6736 9.51956C11.6343 9.41308 11.6181 9.43623 11.6181 9.5566C11.6181 9.74873 11.5532 9.74873 11.4815 9.56585C11.4583 9.49641 11.4259 9.49641 11.419 9.589C11.419 9.76261 11.338 9.78576 11.2894 9.60984C11.2731 9.53576 11.2593 9.47326 11.2431 9.589ZM12.3472 9.86215C12.5139 9.82511 12.419 9.80891 12.3056 9.73947C12.1875 9.67234 12.1389 9.67234 12.1458 9.74873C12.1551 9.79271 12.1551 9.839 12.1713 9.89919C12.2269 9.8853 12.2824 9.87835 12.3472 9.86215ZM12.0185 9.48947C12.1458 9.31354 12.3542 9.36678 12.5949 9.5265C12.8356 9.68623 12.7384 9.93854 12.5069 10.0682C12.4514 10.0983 12.3796 10.1284 12.2894 10.1584C12.3148 10.2117 12.2824 10.2279 12.2106 10.1816C12.0023 10.251 11.7292 10.3506 11.5394 10.4478C11.7708 10.464 12.7315 10.4478 12.9236 10.4247C13.1157 10.4108 13.0833 10.4409 13.0278 10.6006C12.9699 10.7534 12.9074 10.7372 12.7477 10.7603C12.4907 10.8066 12.1134 10.9131 11.8426 11.0196C11.5694 11.126 11.6667 11.3159 11.9468 11.4154C12.162 11.4686 12.1389 11.4918 12.0995 11.6145C12.0671 11.7279 12.0671 11.758 11.8032 11.7209C11.1551 11.6214 10.9213 11.2788 10.8171 11.0126C10.419 11.552 10.0255 11.8506 9.65741 11.758C9.47454 11.7209 9.38657 11.5612 9.37037 11.3622C9.11343 11.4756 8.81713 11.5751 8.43287 11.6816C8.34491 11.7117 8.27315 11.6747 8.39352 11.6214C8.64815 11.4987 9.04861 11.295 9.37731 11.0728C9.40972 10.9362 9.48148 10.7464 9.55324 10.6075C9.59259 10.5242 9.61805 10.5543 9.61805 10.6237C9.61805 10.677 9.60185 10.8135 9.6088 10.9131C9.66667 10.8668 9.74537 10.8228 9.78472 10.7834C10.0093 10.5936 10.2569 10.4709 10.0903 10.1677C10.0185 10.0288 9.96065 9.9316 9.9375 9.8691C9.79398 9.81585 9.83333 9.73947 9.89815 9.60984C9.96065 9.48252 9.98611 9.45011 10.1134 9.59595C10.2986 9.80197 10.3218 9.89224 10.1944 9.87835C10.3935 10.3645 10.3449 10.6168 10.0347 10.9061C9.88889 11.0497 9.73843 11.1654 9.5625 11.2557C9.5463 11.3853 9.60185 11.5149 9.85648 11.4756C10.1944 11.4316 10.5694 11.0126 10.7292 10.6932C10.6574 10.4247 10.4977 9.94548 10.4028 9.70243C10.3542 9.57974 10.4028 9.5265 10.4421 9.42697C10.4907 9.32974 10.5139 9.26724 10.5694 9.40613C10.625 9.53576 10.8009 9.86215 10.8819 10.251C10.9699 10.6399 10.9537 10.9733 11.162 11.1561C11.2593 11.2395 11.3773 11.295 11.5069 11.3251C11.4097 11.0659 11.6111 10.8668 11.875 10.7765C11.7153 10.6307 11.4653 10.6538 11.1852 10.6399C10.9792 10.6307 11.0023 10.6075 11.0579 10.4339C11.1134 10.258 11.1782 10.2348 11.331 10.1747C11.5394 10.0983 11.7454 10.0219 11.963 9.96169C11.8264 9.77187 11.9144 9.63298 12.0185 9.48947ZM11.0093 7.92697C10.9537 7.98021 10.9537 7.98947 11.0023 8.0566C11.0509 8.10984 11.1227 8.27882 11.0972 8.45243C11.0903 8.52882 11.1065 8.60521 11.1458 8.46863C11.1782 8.33206 11.169 8.13993 11.1296 8.0265C11.0903 7.91308 11.0417 7.88298 11.0093 7.92697ZM9.9213 8.22558C9.79398 8.56817 9.80093 8.89456 10.0648 9.17697C10.2176 9.33669 10.3287 9.2603 10.3935 9.08437C10.4653 8.91771 10.5139 8.75104 10.5625 8.6353C10.6088 8.52187 10.6505 8.54502 10.6412 8.6515C10.6181 8.86447 10.6019 9.20706 10.8264 9.33669C11.0509 9.46632 11.3935 9.24641 11.5139 9.01724C11.875 9.47326 12.1944 9.2603 12.2338 8.81817C12.2431 8.6816 12.1782 8.3853 12.1389 8.30197C12.0995 8.20937 12.1227 8.20937 12.1782 8.25567C12.2338 8.30891 12.331 8.339 12.2824 8.18623C12.2269 8.04271 12.162 7.95937 12.0741 7.88993C11.9954 7.82048 11.9792 7.85984 11.9468 7.91308C11.9144 7.96632 11.9213 7.98021 11.875 8.01956C11.8264 8.06585 11.8333 8.08669 11.875 8.17234C12.0093 8.50567 12.1389 8.9941 11.9213 9.04039C11.7222 9.07743 11.5949 8.66539 11.5856 8.48484C11.5787 8.23947 11.5463 8.03345 11.4977 7.90613C11.463 7.8228 11.4421 7.78345 11.4236 7.78345C11.3912 7.78345 11.3449 7.91539 11.3148 7.96632C11.2824 8.01956 11.3148 8.03345 11.338 8.13993C11.4583 8.67465 11.4421 8.91771 11.1852 9.05428C10.9306 9.20011 10.794 9.06354 10.794 8.89456C10.787 8.72789 10.787 8.52187 10.8102 8.3691C10.8264 8.21632 10.8657 8.19548 10.8102 8.1191C10.7546 8.03345 10.706 8.06585 10.6343 8.16308C10.4745 8.37604 10.3148 8.73484 10.2569 8.9015C10.2014 9.07743 10.0903 9.01724 10.0093 8.87141C9.9213 8.6978 9.93055 8.3853 9.96065 8.26261C9.99305 8.13993 9.97685 8.08669 9.9213 8.22558ZM9.59259 8.09595C9.6088 8.04965 9.56944 8.00335 9.53704 8.0728C9.51389 8.12604 9.50463 8.16308 9.55324 8.19548C9.56944 8.16308 9.58565 8.12604 9.59259 8.09595ZM9.40046 8.0265C9.49768 7.79039 9.81713 7.82048 9.72917 8.12604C9.72222 8.17234 9.69676 8.23252 9.66667 8.29271C9.71296 8.35521 9.68981 8.4316 9.59259 8.41539C9.48843 8.57511 9.28935 8.75104 8.94444 8.89456C8.78472 8.964 8.76157 8.91076 8.88194 8.84132C9.11343 8.6978 9.3287 8.52187 9.46528 8.339C9.36111 8.25567 9.36111 8.13298 9.40046 8.0265ZM9.34491 8.87141C9.25 8.98715 9.17824 9.15382 9.3125 9.25335C9.38657 9.31354 9.53704 9.24641 9.59259 9.13067C9.65046 9.0103 9.625 8.9941 9.53009 9.09363C9.39352 9.23715 9.25694 9.10752 9.40046 8.91076C9.49768 8.77419 9.44213 8.74178 9.34491 8.87141ZM9.12963 10.5473C9.14583 10.6006 9.13657 10.7233 9.11343 10.7765C9.08102 10.8436 9.11343 10.876 9.16204 10.7904C9.20833 10.7001 9.24074 10.5936 9.21759 10.4872C9.20833 10.4108 9.20833 10.3876 9.13657 10.3575C9.05787 10.3274 9.03241 10.3714 9.00926 10.4339C8.97685 10.5103 9.0162 10.5936 9.12963 10.5473ZM7.89583 10.045C7.75231 10.0821 7.72917 10.0288 7.73611 9.94548C7.74537 9.86215 7.75231 9.839 7.84954 9.87835C7.88889 9.89224 7.9375 9.94548 7.98611 10.0149C7.9537 10.0219 7.9213 10.0381 7.89583 10.045ZM8.0162 9.70243C7.87268 9.56585 7.75231 9.5566 7.63194 9.72558C7.52083 9.8853 7.52778 9.92234 7.53704 10.0682C7.54398 10.2117 7.51389 10.2649 7.63194 10.3043C7.74537 10.3413 7.79398 10.3274 7.86574 10.3043C7.9213 10.2881 8 10.2649 8.08102 10.2348C8.09722 10.3112 8.08796 10.3946 8.04167 10.4571C7.74537 10.7904 7.28935 11.0358 7.08796 10.8135C6.97685 10.6932 6.92824 10.501 6.96065 10.2742C6.99306 10.0821 6.92824 10.1677 6.90509 10.2348C6.83333 10.4571 6.80787 10.7765 6.90509 10.9362C7.04167 11.1561 7.25694 11.2557 7.60185 11.1122C7.94444 10.9663 8.28009 10.7071 8.2662 10.3506C8.2662 10.2811 8.25694 10.2209 8.25694 10.1747C8.28935 10.1584 8.34491 10.1214 8.38426 10.1052C8.39352 10.2279 8.37731 10.3807 8.38426 10.501C8.40046 10.8899 8.24074 11.0034 8.09722 11.1122C7.89583 11.2626 7.625 11.3622 7.39352 11.4015C6.84028 11.4756 6.71296 11.1422 6.71991 10.6932C6.71991 10.6237 6.75231 10.5774 6.75231 10.4779C6.74537 10.2881 6.71991 10.3182 6.65741 10.5103C6.59954 10.6932 6.52778 11.1191 6.71296 11.4686C6.90509 11.8205 7.55324 11.7209 8.05787 11.4918C8.55324 11.2626 8.6088 10.8297 8.58565 10.3946C8.58565 10.2811 8.57639 10.1584 8.56944 10.0288C8.58565 10.0219 8.59259 10.008 8.60185 9.99873C8.67361 10.2209 9.00926 10.1584 9.11343 10.0288C9.16898 9.96863 9.16898 9.96169 9.21759 10.0288C9.28935 10.1284 9.53704 10.1584 9.60185 10.0219C9.65741 9.87835 9.65046 9.73947 9.63426 9.63298C9.61805 9.5265 9.59259 9.53576 9.52083 9.589C9.44213 9.64919 9.50463 9.65613 9.51389 9.73252C9.5463 10.0219 9.28241 9.99873 9.25 9.70243C9.2338 9.51956 9.20139 9.589 9.17824 9.67234C9.06481 10.0288 8.73611 10.0983 8.76852 9.68623C8.77778 9.56585 8.69676 9.60289 8.65741 9.64919C8.61806 9.67928 8.58565 9.71863 8.5463 9.73947C8.52083 9.40613 8.49768 9.02419 8.45602 8.56817C8.55324 8.6816 8.6412 8.55197 8.57639 8.42234C8.53009 8.3228 8.45602 8.10289 8.40972 7.98021C8.36806 7.85984 8.34491 7.89687 8.24074 7.99641C8.14583 8.10289 8.16204 8.12604 8.20833 8.23252C8.19213 8.36215 8.21759 8.49178 8.25 8.75798C8.27315 8.9478 8.33796 9.34363 8.36806 9.84595C8.32176 9.8691 8.25 9.91539 8.20139 9.93854C8.16204 9.85521 8.10417 9.78576 8.0162 9.70243ZM6.2963 10.67C6.30324 10.7464 6.30324 10.7997 6.30324 10.8297C6.30324 10.883 6.27315 10.9362 6.25694 11.0034C6.15972 11.3321 6.30324 11.4918 6.38426 11.3691C6.45602 11.2487 6.49537 11.2626 6.48843 11.3622C6.48148 11.6909 6.15278 11.7117 6.12731 11.4385C6.08796 11.0034 6.19213 10.9362 6.22454 10.7904C6.24769 10.6932 6.28009 10.6168 6.2963 10.67ZM6.12731 10.1885C6.36111 9.92234 6.65741 9.78576 6.80787 9.73947C6.90509 9.70937 6.9537 9.67234 6.9537 9.76261C6.96065 9.84595 6.9537 9.85521 6.87269 9.87835C6.6875 9.92234 6.30324 10.1052 6.17593 10.1978C6.11343 10.2441 6.03241 10.2973 6.12731 10.1885ZM7.43287 7.89687C7.40972 7.95937 7.42593 8.03345 7.46528 8.07974C7.50463 8.13298 7.57639 8.13298 7.625 8.09595C7.66435 8.04965 7.66435 8.04271 7.70602 8.10289C7.72917 8.14919 7.80787 8.13298 7.83333 8.08669C7.84954 8.04965 7.87268 8.01261 7.84954 7.95937C7.82407 7.90613 7.82407 7.92002 7.80787 7.98021C7.79398 8.07974 7.69676 8.0566 7.68981 7.93623C7.68981 7.82048 7.66435 7.88298 7.63194 7.95937C7.57639 8.0728 7.49768 8.04965 7.49768 7.95011C7.49768 7.86678 7.47222 7.79734 7.43287 7.89687ZM7.08796 9.49641C7.11343 9.77187 7.19213 10.2811 7.19213 10.4571C7.20139 10.6399 7.22454 10.5867 7.27315 10.4872C7.32176 10.3876 7.3125 10.2811 7.30556 10.1353C7.28935 9.98484 7.28009 9.73252 7.24768 9.38993C7.3125 9.34363 7.36806 9.26724 7.39352 9.22326C7.45602 9.10752 7.47222 9.11678 7.49768 9.20706C7.54398 9.38993 7.73611 9.51261 7.99306 9.33669C8.2338 9.17697 8.12963 8.84132 8.02546 8.47558C8.11343 8.49178 8.14583 8.42234 8.08796 8.33206C8.06481 8.27882 8.0162 8.23252 7.97685 8.18623C7.9375 8.13993 7.89583 8.10289 7.85648 8.14919C7.82407 8.19548 7.78472 8.23252 7.76157 8.26261C7.73611 8.29271 7.73611 8.3228 7.76852 8.39919C7.86574 8.61215 7.92824 8.84132 7.94444 8.97095C7.96991 9.09363 7.9213 9.12373 7.83333 9.12373C7.74537 9.12373 7.625 9.10058 7.57639 8.91771C7.52778 8.73484 7.50463 8.6515 7.51389 8.52882C7.52083 8.40845 7.53704 8.3228 7.44907 8.20243C7.35185 8.07974 7.34491 8.10289 7.32176 8.16308C7.30556 8.23252 7.27315 8.33206 7.30556 8.44548C7.34491 8.61215 7.36806 8.75798 7.39352 8.85752C7.40972 8.92465 7.33565 9.07048 7.2338 9.14687C7.20833 8.91771 7.16898 8.61215 7.15278 8.3691C7.28935 8.3228 7.21759 8.14919 7.10417 7.95937C7.02546 7.81354 6.99306 7.87373 6.9375 7.96632C6.87963 8.0566 6.9213 8.09595 6.96065 8.17234C6.92824 8.23252 6.9838 8.3228 7.00926 8.49178C7.0162 8.59826 7.04167 8.9015 7.06481 9.17002C6.9537 9.17002 6.88889 9.10058 6.84954 9.0103C6.76157 8.81817 6.78472 8.64456 6.82407 8.52882C6.86574 8.41539 6.90509 8.23947 6.83333 8.19548C6.76852 8.14919 6.68056 8.20243 6.625 8.28576C6.52778 8.42234 6.43981 8.62141 6.43287 8.82743C6.42361 8.91076 6.40046 9.07048 6.36111 9.13067C6.3287 9.19317 6.27315 9.20011 6.21528 9.10752C6.12037 8.964 6.08796 8.59826 6.09722 8.40845C6.09722 8.31585 6.07176 8.30197 6.03935 8.40845C6.01157 8.50567 6 8.60521 6 8.70011C6 8.96863 6.0787 9.214 6.14352 9.33669C6.23148 9.50335 6.34491 9.46632 6.42361 9.32974C6.54398 9.12373 6.49537 8.94085 6.6088 8.6353C6.67361 8.44548 6.69676 8.59132 6.67361 8.70474C6.61574 9.0103 6.63194 9.50335 7.08796 9.49641ZM6.40046 8.30197C6.48148 8.08669 6.48843 7.89687 6.39352 7.96632C6.3125 8.0265 6.26389 7.96632 6.3287 7.89687C6.40741 7.79734 6.51157 7.76724 6.53704 7.93623C6.54398 8.06585 6.44907 8.22558 6.40046 8.30197Z" fill="white"/>
</g>
<defs>
<clipPath id="clip0_142_390">
<rect width="24" height="16" fill="white" transform="translate(0 3.78345)"/>
</clipPath>
</defs>
</svg>
