<svg width="20" height="20" viewBox="0 0 20 20" fill="none" xmlns="http://www.w3.org/2000/svg">
<path d="M8.14836 12.4945L10.1909 14.2836C10.2859 14.3707 10.4363 14.3707 10.5313 14.2836L12.5738 12.4945C13.1042 12.0274 13.1754 11.2357 12.7321 10.6815C12.2888 10.1274 11.4813 10.0245 10.9192 10.452L10.365 10.8795L9.80294 10.4599C9.23294 10.0324 8.43336 10.1353 7.99003 10.6895C7.54669 11.2357 7.61794 12.0353 8.14836 12.4945Z" stroke="#1AB6F1" stroke-width="1.1" stroke-linecap="round" stroke-linejoin="round"/>
<path d="M18.2817 9.50195V14.252C18.2817 17.4186 17.49 18.2103 14.3234 18.2103H6.4067C3.24003 18.2103 2.44836 17.4186 2.44836 14.252V6.33529C2.44836 3.16862 3.24003 2.37695 6.4067 2.37695H7.5942C8.7817 2.37695 9.04295 2.72529 9.4942 3.32695L10.6817 4.91029C10.9825 5.30612 11.1567 5.54362 11.9484 5.54362H14.3234C17.49 5.54362 18.2817 6.33529 18.2817 9.50195Z" stroke="#1AB6F1" stroke-width="1.1" stroke-miterlimit="10"/>
</svg>
