<svg width="18" height="19" viewBox="0 0 18 19" fill="none" xmlns="http://www.w3.org/2000/svg">
<path d="M6.75049 7.87842C7.57892 7.87842 8.25049 7.20685 8.25049 6.37842C8.25049 5.54999 7.57892 4.87842 6.75049 4.87842C5.92206 4.87842 5.25049 5.54999 5.25049 6.37842C5.25049 7.20685 5.92206 7.87842 6.75049 7.87842Z" stroke="#292D32" stroke-opacity="0.3" stroke-width="0.83" stroke-linecap="round" stroke-linejoin="round"/>
<path d="M9.75049 1.87842H6.75049C3.00049 1.87842 1.50049 3.37842 1.50049 7.12842V11.6284C1.50049 15.3784 3.00049 16.8784 6.75049 16.8784H11.2505C15.0005 16.8784 16.5005 15.3784 16.5005 11.6284V7.87842" stroke="#292D32" stroke-opacity="0.3" stroke-width="0.83" stroke-linecap="round" stroke-linejoin="round"/>
<path d="M11.813 4.12842H15.938" stroke="#292D32" stroke-opacity="0.3" stroke-width="0.83" stroke-linecap="round"/>
<path d="M13.8755 6.19092V2.06592" stroke="#292D32" stroke-opacity="0.3" stroke-width="0.83" stroke-linecap="round"/>
<path d="M2.00299 14.5908L5.70049 12.1083C6.29299 11.7108 7.14799 11.7558 7.68049 12.2133L7.92799 12.4308C8.51299 12.9333 9.45799 12.9333 10.043 12.4308L13.163 9.75334C13.748 9.25084 14.693 9.25084 15.278 9.75334L16.5005 10.8033" stroke="#292D32" stroke-opacity="0.3" stroke-width="0.83" stroke-linecap="round" stroke-linejoin="round"/>
</svg>
