<svg width="24" height="25" viewBox="0 0 24 25" fill="none" xmlns="http://www.w3.org/2000/svg">
<path d="M9 10.351C10.1046 10.351 11 9.45558 11 8.35101C11 7.24644 10.1046 6.35101 9 6.35101C7.89543 6.35101 7 7.24644 7 8.35101C7 9.45558 7.89543 10.351 9 10.351Z" stroke="#BE1D2C" stroke-width="1.5" stroke-linecap="round" stroke-linejoin="round"/>
<path d="M13 2.35101H9C4 2.35101 2 4.35101 2 9.35101V15.351C2 20.351 4 22.351 9 22.351H15C20 22.351 22 20.351 22 15.351V10.351" stroke="#BE1D2C" stroke-width="1.5" stroke-linecap="round" stroke-linejoin="round"/>
<path d="M19.14 2.94104L15.51 6.57104C15.37 6.71104 15.23 6.98104 15.21 7.18104L15.01 8.57104C14.94 9.07104 15.29 9.42104 15.79 9.35104L17.18 9.15104C17.37 9.12104 17.65 8.99104 17.79 8.85104L21.42 5.22104C22.05 4.59104 22.34 3.87104 21.42 2.95104C20.49 2.01104 19.77 2.31104 19.14 2.94104Z" stroke="#BE1D2C" stroke-width="1.5" stroke-miterlimit="10" stroke-linecap="round" stroke-linejoin="round"/>
<path d="M18.62 3.461C18.93 4.561 19.79 5.421 20.89 5.731" stroke="#BE1D2C" stroke-width="1.5" stroke-miterlimit="10" stroke-linecap="round" stroke-linejoin="round"/>
<path d="M2.67004 19.301L7.60004 15.991C8.39004 15.461 9.53004 15.521 10.24 16.131L10.57 16.421C11.35 17.091 12.61 17.091 13.39 16.421L17.55 12.851C18.33 12.181 19.59 12.181 20.37 12.851L22 14.251" stroke="#BE1D2C" stroke-width="1.5" stroke-linecap="round" stroke-linejoin="round"/>
</svg>
