<svg width="18" height="19" viewBox="0 0 18 19" fill="none" xmlns="http://www.w3.org/2000/svg">
<path d="M14.9775 7.85107H2.97751V13.8511C2.97751 16.1011 3.72751 16.8511 5.97751 16.8511H11.9775C14.2275 16.8511 14.9775 16.1011 14.9775 13.8511V7.85107Z" stroke="#983591" stroke-width="1.1" stroke-miterlimit="10" stroke-linecap="round" stroke-linejoin="round"/>
<path d="M16.125 5.60107V6.35107C16.125 7.17607 15.7275 7.85107 14.625 7.85107H3.375C2.2275 7.85107 1.875 7.17607 1.875 6.35107V5.60107C1.875 4.77607 2.2275 4.10107 3.375 4.10107H14.625C15.7275 4.10107 16.125 4.77607 16.125 5.60107Z" stroke="#983591" stroke-width="1.1" stroke-miterlimit="10" stroke-linecap="round" stroke-linejoin="round"/>
<path d="M8.72999 4.10103H4.58999C4.33499 3.82353 4.34249 3.39603 4.61249 3.12603L5.67749 2.06103C5.95499 1.78353 6.41249 1.78353 6.68999 2.06103L8.72999 4.10103Z" stroke="#983591" stroke-width="1.1" stroke-miterlimit="10" stroke-linecap="round" stroke-linejoin="round"/>
<path d="M13.4025 4.10103H9.26251L11.3025 2.06103C11.58 1.78353 12.0375 1.78353 12.315 2.06103L13.38 3.12603C13.65 3.39603 13.6575 3.82353 13.4025 4.10103Z" stroke="#983591" stroke-width="1.1" stroke-miterlimit="10" stroke-linecap="round" stroke-linejoin="round"/>
<path d="M6.70499 7.85107V11.7061C6.70499 12.3061 7.36499 12.6586 7.86749 12.3361L8.57249 11.8711C8.82749 11.7061 9.14999 11.7061 9.39749 11.8711L10.065 12.3211C10.56 12.6511 11.2275 12.2986 11.2275 11.6986V7.85107H6.70499Z" stroke="#983591" stroke-width="1.1" stroke-miterlimit="10" stroke-linecap="round" stroke-linejoin="round"/>
</svg>
