<svg width="18" height="19" viewBox="0 0 18 19" fill="none" xmlns="http://www.w3.org/2000/svg">
<path d="M9 16.8511C13.1421 16.8511 16.5 13.4932 16.5 9.35107C16.5 5.20894 13.1421 1.85107 9 1.85107C4.85786 1.85107 1.5 5.20894 1.5 9.35107C1.5 13.4932 4.85786 16.8511 9 16.8511Z" stroke="#DE6877" stroke-linecap="round" stroke-linejoin="round"/>
<path d="M6.00001 2.60107H6.75001C5.28751 6.98107 5.28751 11.7211 6.75001 16.1011H6.00001" stroke="#DE6877" stroke-linecap="round" stroke-linejoin="round"/>
<path d="M11.25 2.60107C12.7125 6.98107 12.7125 11.7211 11.25 16.1011" stroke="#DE6877" stroke-linecap="round" stroke-linejoin="round"/>
<path d="M2.25 12.3511V11.6011C6.63 13.0636 11.37 13.0636 15.75 11.6011V12.3511" stroke="#DE6877" stroke-linecap="round" stroke-linejoin="round"/>
<path d="M2.25 7.10103C6.63 5.63853 11.37 5.63853 15.75 7.10103" stroke="#DE6877" stroke-linecap="round" stroke-linejoin="round"/>
</svg>
