<svg width="21" height="21" viewBox="0 0 21 21" fill="none" xmlns="http://www.w3.org/2000/svg">
<path d="M20.9272 10.7498C20.9272 16.2725 16.45 20.7498 10.9272 20.7498C5.40447 20.7498 0.927246 16.2725 0.927246 10.7498C0.927246 5.22698 5.40447 0.749756 10.9272 0.749756C16.45 0.749756 20.9272 5.22698 20.9272 10.7498Z" fill="#FFCC4D"/>
<path d="M10.9272 12.8881C9.27945 12.8881 8.18556 12.6958 6.83334 12.4331C6.5239 12.3742 5.92334 12.4331 5.92334 13.3431C5.92334 15.1625 8.0139 17.4369 10.9272 17.4369C13.8406 17.4369 15.9311 15.1625 15.9311 13.3431C15.9311 12.4331 15.33 12.3736 15.0211 12.4331C13.6689 12.6958 12.5756 12.8881 10.9272 12.8881Z" fill="#664500"/>
<path d="M10.1773 2.57249C9.70007 1.22193 8.21952 0.513042 6.86841 0.989153C6.04841 1.27804 5.46785 1.93971 5.24174 2.7136C4.58007 2.25304 3.71341 2.10249 2.89452 2.39137C1.54452 2.86804 0.834517 4.34971 1.31174 5.70026C1.37952 5.89138 1.46952 6.0686 1.57396 6.23249C2.65785 8.22249 5.78952 9.62138 7.68563 9.6386C9.15063 8.43471 10.7112 5.38026 10.3067 3.15137C10.2856 2.95804 10.244 2.7636 10.1773 2.57249V2.57249ZM11.6773 2.57249C12.1545 1.22193 13.6356 0.513042 14.9862 0.989153C15.8062 1.27804 16.3867 1.93971 16.6134 2.7136C17.2751 2.25304 18.1417 2.10249 18.9606 2.39137C20.3106 2.86804 21.0201 4.34971 20.544 5.70026C20.4756 5.89138 20.3862 6.0686 20.2812 6.23249C19.1973 8.22249 16.0656 9.62138 14.169 9.6386C12.704 8.43471 11.144 5.38026 11.5484 3.15137C11.569 2.95804 11.6106 2.7636 11.6773 2.57249V2.57249Z" fill="#DD2E44"/>
</svg>
