<svg width="28" height="26" viewBox="0 0 28 26" fill="none" xmlns="http://www.w3.org/2000/svg">
<g clip-path="url(#clip0_2213_2731)">
<path d="M2.19823 22.0753C4.85577 24.6063 8.41527 26 12.2205 26C12.964 26 13.6941 25.9457 14.4064 25.8419C21.0922 24.8648 26.2207 19.4776 26.2207 12.9998C26.2207 9.54266 24.782 6.29043 22.1689 3.84262C20.0452 1.85342 17.3432 0.579365 14.4065 0.156509C13.7296 0.0581966 13.041 0.0059427 12.3435 0.000407546C10.8233 -0.010612 9.3238 0.201857 7.88951 0.635072C7.41635 0.778072 7.0424 1.12668 6.88987 1.56676C6.73735 2.00611 6.8225 2.49016 7.11644 2.86076C8.17235 4.19397 8.73065 5.77611 8.73065 7.43661C8.73065 9.90641 7.50445 12.1693 5.36519 13.6455C4.87869 13.981 4.66174 14.5717 4.82465 15.1155C4.93277 15.4758 4.98757 15.8485 4.98757 16.2232C4.98757 17.7758 4.06346 19.1833 2.57656 19.8977C2.1634 20.0957 1.87235 20.4691 1.79759 20.8967C1.7236 21.3244 1.87317 21.7652 2.19823 22.0753Z" fill="#D19B61"/>
<path d="M2.19809 22.0753C4.85562 24.6063 8.41512 26 12.2204 26C12.9638 26 13.6939 25.9457 14.4062 25.8419V0.156509C13.7294 0.0581966 13.0408 0.0059427 12.3433 0.000407546C10.8231 -0.010612 9.32359 0.201857 7.8893 0.635072C7.41615 0.778072 7.04219 1.12668 6.88967 1.56676C6.73715 2.00611 6.8223 2.49016 7.11624 2.86076C8.17215 4.19397 8.73045 5.77611 8.73045 7.43661C8.73045 9.90641 7.50425 12.1693 5.36498 13.6455C4.87848 13.981 4.66154 14.5717 4.82445 15.1155C4.93257 15.4758 4.98737 15.8485 4.98737 16.2232C4.98737 17.7758 4.06326 19.1833 2.57636 19.8977C2.16319 20.0957 1.87215 20.4691 1.79739 20.8967C1.72345 21.3244 1.87302 21.7652 2.19809 22.0753Z" fill="#D19B61"/>
<path d="M13.233 9.01458C13.233 10.6008 14.6221 11.8907 16.3303 11.8907C18.0386 11.8907 19.4277 10.6008 19.4277 9.01458C19.4277 7.42832 18.0386 6.13843 16.3303 6.13843C14.6221 6.13843 13.233 7.42832 13.233 9.01458Z" fill="#332A23" fill-opacity="0.9"/>
<path d="M13.2327 9.01463C13.2327 10.6009 14.6218 11.8908 16.3301 11.8908V6.13843C14.6219 6.13843 13.2327 7.42837 13.2327 9.01463Z" fill="#332A23" fill-opacity="0.9"/>
<path d="M14.1293 16.0321C14.1293 17.8432 15.7169 19.3167 17.6673 19.3167C19.6178 19.3167 21.2046 17.8432 21.2046 16.0321C21.2046 14.221 19.6178 12.7468 17.6673 12.7468C15.7169 12.7468 14.1293 14.221 14.1293 16.0321Z" fill="#332A23" fill-opacity="0.9"/>
<path d="M14.1295 16.0321C14.1295 17.8432 15.7171 19.3167 17.6675 19.3167V12.7468C15.7171 12.7468 14.1295 14.221 14.1295 16.0321Z" fill="#332A23" fill-opacity="0.9"/>
<path d="M8.49004 18.3987C8.49004 19.7766 9.69776 20.8981 11.1824 20.8981C12.6663 20.8981 13.874 19.7766 13.874 18.3987C13.874 17.0201 12.6663 15.8987 11.1824 15.8987C9.69776 15.8987 8.49004 17.0201 8.49004 18.3987Z" fill="#332A23" fill-opacity="0.9"/>
<path d="M8.49024 18.3987C8.49024 19.7766 9.69796 20.8981 11.1826 20.8981V15.8987C9.69796 15.8987 8.49024 17.0201 8.49024 18.3987Z" fill="#332A23" fill-opacity="0.9"/>
</g>
<defs>
<clipPath id="clip0_2213_2731">
<rect width="28" height="26" fill="white" transform="matrix(-1 0 0 1 28 0)"/>
</clipPath>
</defs>
</svg>
