<svg width="18" height="19" viewBox="0 0 18 19" fill="none" xmlns="http://www.w3.org/2000/svg">
<path d="M4.5 7.85107V6.35107C4.5 3.86857 5.25 1.85107 9 1.85107C12.75 1.85107 13.5 3.86857 13.5 6.35107V7.85107" stroke="#1AB6F1" stroke-width="1.1" stroke-linecap="round" stroke-linejoin="round"/>
<path d="M9 14.2261C10.0355 14.2261 10.875 13.3866 10.875 12.3511C10.875 11.3155 10.0355 10.4761 9 10.4761C7.96447 10.4761 7.125 11.3155 7.125 12.3511C7.125 13.3866 7.96447 14.2261 9 14.2261Z" stroke="#1AB6F1" stroke-width="1.1" stroke-linecap="round" stroke-linejoin="round"/>
<path d="M12.75 16.8511H5.25C2.25 16.8511 1.5 16.1011 1.5 13.1011V11.6011C1.5 8.60107 2.25 7.85107 5.25 7.85107H12.75C15.75 7.85107 16.5 8.60107 16.5 11.6011V13.1011C16.5 16.1011 15.75 16.8511 12.75 16.8511Z" stroke="#1AB6F1" stroke-width="1.1" stroke-linecap="round" stroke-linejoin="round"/>
</svg>
