<svg width="41" height="41" viewBox="0 0 41 41" fill="none" xmlns="http://www.w3.org/2000/svg">
<path d="M19.1419 11.9175C19.7738 10.7839 20.0898 10.217 20.5622 10.217C21.0346 10.217 21.3506 10.7839 21.9825 11.9175L22.146 12.2108C22.3256 12.5329 22.4154 12.694 22.5554 12.8003C22.6954 12.9066 22.8697 12.946 23.2184 13.0249L23.5359 13.0967C24.7631 13.3744 25.3766 13.5132 25.5226 13.9827C25.6686 14.4521 25.2503 14.9412 24.4137 15.9195L24.1973 16.1726C23.9595 16.4506 23.8407 16.5896 23.7872 16.7616C23.7337 16.9335 23.7517 17.119 23.7876 17.4899L23.8204 17.8276C23.9468 19.1328 24.0101 19.7854 23.6279 20.0756C23.2457 20.3657 22.6712 20.1012 21.5222 19.5721L21.225 19.4353C20.8985 19.2849 20.7352 19.2098 20.5622 19.2098C20.3891 19.2098 20.2259 19.2849 19.8994 19.4353L19.6021 19.5721C18.4531 20.1012 17.8787 20.3657 17.4965 20.0756C17.1143 19.7854 17.1775 19.1328 17.304 17.8276L17.3367 17.4899C17.3727 17.119 17.3907 16.9335 17.3372 16.7616C17.2837 16.5896 17.1648 16.4506 16.9271 16.1726L16.7107 15.9195C15.8741 14.9412 15.4558 14.4521 15.6018 13.9827C15.7477 13.5132 16.3613 13.3744 17.5885 13.0967L17.906 13.0249C18.2547 12.946 18.429 12.9066 18.569 12.8003C18.709 12.694 18.7988 12.5329 18.9784 12.2108L19.1419 11.9175Z" stroke="white" stroke-width="1.8"/>
<path d="M20.5622 26.9601L14.2902 33.4542C13.392 34.3842 12.9429 34.8492 12.5625 35.0101C11.6959 35.3768 10.7345 35.063 10.2786 34.2646C10.0785 33.9143 10.0161 33.2823 9.89145 32.0184C9.82105 31.3048 9.78585 30.948 9.679 30.6491C9.43979 29.9801 8.93714 29.4596 8.29097 29.2119C8.00233 29.1013 7.65772 29.0648 6.9685 28.992C5.74781 28.8628 5.13746 28.7983 4.79908 28.5911C4.02799 28.1191 3.72492 27.1237 4.07907 26.2263C4.23448 25.8325 4.68359 25.3675 5.58182 24.4374L9.679 20.1952" stroke="white" stroke-width="1.8"/>
<path d="M20.5623 26.9601L26.8343 33.4542C27.7325 34.3842 28.1816 34.8492 28.562 35.0101C29.4287 35.3768 30.39 35.063 30.8459 34.2646C31.046 33.9143 31.1084 33.2823 31.2331 32.0184C31.3035 31.3048 31.3387 30.948 31.4455 30.6491C31.6847 29.9801 32.1874 29.4596 32.8335 29.2119C33.1222 29.1013 33.4668 29.0648 34.156 28.992C35.3767 28.8628 35.987 28.7983 36.3254 28.5911C37.0965 28.1191 37.3996 27.1237 37.0454 26.2263C36.89 25.8325 36.4409 25.3675 35.5427 24.4374L31.4455 20.1952" stroke="white" stroke-width="1.8"/>
<path d="M9.75253 10.8771C9.21613 12.2153 8.92102 13.6762 8.92102 15.2061C8.92102 21.6353 14.1329 26.8473 20.5622 26.8473C26.9914 26.8473 32.2033 21.6353 32.2033 15.2061C32.2033 8.77687 26.9914 3.56494 20.5622 3.56494C19.0323 3.56494 17.5714 3.86005 16.2332 4.39645" stroke="white" stroke-width="1.8" stroke-linecap="round"/>
</svg>
