<svg width="19" height="20" viewBox="0 0 19 20" fill="none" xmlns="http://www.w3.org/2000/svg">
<path d="M17.3612 5.70279L14.6933 16.4141C14.5033 17.2136 13.7908 17.7678 12.9675 17.7678H2.56494C1.36952 17.7678 0.514536 16.5961 0.870786 15.4482L4.2037 4.7449C4.43328 4.00074 5.12204 3.48608 5.89787 3.48608H15.6354C16.3874 3.48608 17.0129 3.94525 17.2741 4.57859C17.4245 4.919 17.4562 5.30696 17.3612 5.70279Z" stroke="#292D32" stroke-width="1.2" stroke-miterlimit="10"/>
<path d="M12.6666 17.7677H16.4508C17.472 17.7677 18.2716 16.9048 18.2004 15.8836L17.4166 5.10107" stroke="#292D32" stroke-width="1.2" stroke-miterlimit="10" stroke-linecap="round" stroke-linejoin="round"/>
<path d="M7.66333 5.40189L8.48667 1.98193" stroke="#292D32" stroke-width="1.2" stroke-miterlimit="10" stroke-linecap="round" stroke-linejoin="round"/>
<path d="M12.9675 5.40981L13.7117 1.974" stroke="#292D32" stroke-width="1.2" stroke-miterlimit="10" stroke-linecap="round" stroke-linejoin="round"/>
<path d="M6.09583 9.85107H12.4292" stroke="#292D32" stroke-width="1.2" stroke-miterlimit="10" stroke-linecap="round" stroke-linejoin="round"/>
<path d="M5.3042 13.0177H11.6375" stroke="#292D32" stroke-width="1.2" stroke-miterlimit="10" stroke-linecap="round" stroke-linejoin="round"/>
</svg>
