<svg width="20" height="20" viewBox="0 0 20 20" fill="none" xmlns="http://www.w3.org/2000/svg">
<path d="M17.4702 5.43338L14.8023 16.1447C14.6123 16.9442 13.8998 17.4984 13.0765 17.4984H2.67395C1.47853 17.4984 0.623544 16.3267 0.979794 15.1787L4.3127 4.47549C4.54229 3.73133 5.23105 3.21667 6.00688 3.21667H15.7444C16.4965 3.21667 17.1219 3.67585 17.3831 4.30918C17.5335 4.6496 17.5652 5.03755 17.4702 5.43338Z" fill="#BE1D2C" stroke="#BE1D2C" stroke-width="1.2" stroke-miterlimit="10"/>
<path d="M12.7756 17.4983H16.5598C17.5811 17.4983 18.3806 16.6354 18.3094 15.6142L17.5256 4.83167" stroke="#BE1D2C" stroke-width="1.2" stroke-miterlimit="10" stroke-linecap="round" stroke-linejoin="round"/>
<path d="M7.77222 5.13248L8.59556 1.71252" stroke="#BE1D2C" stroke-width="1.2" stroke-miterlimit="10" stroke-linecap="round" stroke-linejoin="round"/>
<path d="M13.0764 5.1404L13.8206 1.70459" stroke="#BE1D2C" stroke-width="1.2" stroke-miterlimit="10" stroke-linecap="round" stroke-linejoin="round"/>
<path d="M6.20483 9.58167H12.5382" stroke="white" stroke-width="1.2" stroke-miterlimit="10" stroke-linecap="round" stroke-linejoin="round"/>
<path d="M5.41309 12.7483H11.7464" stroke="white" stroke-width="1.2" stroke-miterlimit="10" stroke-linecap="round" stroke-linejoin="round"/>
</svg>
