<svg width="19" height="20" viewBox="0 0 19 20" fill="none" xmlns="http://www.w3.org/2000/svg">
<path d="M17.4166 6.6665V10.8332C17.4166 14.1665 15.8333 15.8332 12.6666 15.8332H12.2708C12.0253 15.8332 11.7878 15.9582 11.6374 16.1665L10.4499 17.8332C9.92742 18.5665 9.07242 18.5665 8.54992 17.8332L7.36242 16.1665C7.23575 15.9832 6.94284 15.8332 6.72909 15.8332H6.33325C3.16659 15.8332 1.58325 14.9998 1.58325 10.8332V6.6665C1.58325 3.33317 3.16659 1.6665 6.33325 1.6665H9.49992" stroke="white" stroke-width="1.5" stroke-miterlimit="10" stroke-linecap="round" stroke-linejoin="round"/>
<path d="M12.0335 3.85015C11.7722 3.02515 12.081 2.00848 12.936 1.72515C13.3793 1.58348 13.9335 1.70015 14.2501 2.14181C14.551 1.68348 15.121 1.58348 15.5643 1.72515C16.4193 2.00015 16.728 3.02515 16.4668 3.85015C16.063 5.15848 14.646 5.83348 14.2501 5.83348C13.8543 5.83348 12.453 5.16681 12.0335 3.85015Z" stroke="white" stroke-width="1.5" stroke-linecap="round" stroke-linejoin="round"/>
<path d="M12.6639 9.16667H12.6711" stroke="white" stroke-width="2" stroke-linecap="round" stroke-linejoin="round"/>
<path d="M9.49647 9.16667H9.50358" stroke="white" stroke-width="2" stroke-linecap="round" stroke-linejoin="round"/>
<path d="M6.32898 9.16667H6.3361" stroke="white" stroke-width="2" stroke-linecap="round" stroke-linejoin="round"/>
</svg>
