<svg width="30" height="30" viewBox="0 0 30 30" fill="none" xmlns="http://www.w3.org/2000/svg">
<g clip-path="url(#clip0_2213_2701)">
<path d="M12.7031 10.6406L11.5312 1.92187C12.6562 1.64062 13.7813 0.9375 15 0.9375C16.2187 0.9375 17.3438 1.64062 18.5156 1.96875C19.6875 2.25 21 2.20313 22.0312 2.8125C23.0625 3.42187 23.7187 4.59375 24.5625 5.4375C25.4062 6.28125 26.5781 6.9375 27.1875 7.96875C27.7969 9 27.75 10.3125 28.0781 11.4844C28.3594 12.6562 29.0625 13.7813 29.0625 15C29.0625 16.2187 28.3594 17.3438 28.0313 18.5156C27.75 19.6875 27.7969 21 27.1875 22.0312C26.5781 23.0625 25.4062 23.7188 24.5625 24.5625C23.7187 25.4063 23.1094 26.5781 22.0312 27.1875C21 27.7969 19.6875 27.75 18.5156 28.0781C17.3438 28.3594 16.2187 29.0625 15 29.0625C13.7813 29.0625 12.6562 28.3594 11.4844 28.0312C10.3125 27.7031 9 27.75 7.96875 27.1406C6.9375 26.5313 6.28125 25.3594 5.4375 24.5156C4.59375 23.6719 3.42187 23.0625 2.8125 21.9844C2.20313 20.9531 2.25 19.6406 1.92187 18.4688C1.64062 17.3438 0.9375 16.2187 0.9375 15C0.9375 13.7813 1.92187 11.2031 1.92187 11.2031L12.7031 10.6406Z" fill="#D19B61"/>
<path d="M2.15625 10.5C2.625 10.6406 3.28125 10.5938 3.98437 10.3125C4.96875 9.9375 5.57812 9.14063 5.76562 8.20313C6.23437 8.34375 7.35937 8.20313 8.10937 7.73438C9.23437 7.03125 9.46875 5.0625 9.46875 5.0625C10.7344 4.6875 11.6719 3.1875 11.5312 1.92188C12.5625 1.64062 13.875 1.6875 15 1.6875C16.125 1.6875 17.1562 2.34375 18.1875 2.625C19.2656 2.90625 20.4844 2.85938 21.4219 3.42188C22.3594 3.98438 22.9688 5.0625 23.7188 5.8125C24.5156 6.60938 25.5937 7.17187 26.1094 8.10938C26.6719 9.04688 26.625 10.2656 26.9062 11.3438C27.1875 12.375 27.8438 13.4063 27.8438 14.5313C27.8438 15.6563 27.1875 16.6875 26.9062 17.7188C26.625 18.7969 26.6719 20.0156 26.1094 20.9531C25.5469 21.8906 24.4688 22.5 23.7188 23.25C22.9219 24.0469 22.3594 25.125 21.4219 25.6406C20.4844 26.2031 19.2656 26.1563 18.1875 26.4375C17.1562 26.7188 16.125 27.375 15 27.375C13.875 27.375 12.8437 26.7188 11.8125 26.4375C10.7344 26.1563 9.51562 26.2031 8.57812 25.6406C7.64062 25.0781 7.03125 24 6.28125 23.25C5.48437 22.4531 4.40625 21.8906 3.89062 20.9531C3.32812 20.0156 3.375 18.7969 3.09375 17.7188C2.8125 16.6875 1.6875 15.8438 1.54687 14.7188C1.17187 12.8906 2.10937 10.8281 2.15625 10.5Z" fill="#D19B61"/>
<path d="M6.51563 5.0625L7.17188 5.71875L7.78125 5.0625L7.17188 4.45312L6.51563 5.0625Z" fill="#D19B61"/>
<path d="M3.84375 8.34375L4.125 8.67187L4.45312 8.34375L4.125 8.01562L3.84375 8.34375Z" fill="#D19B61"/>
<path d="M6.1875 6.1875L6.51563 6.51562L6.84375 6.1875L6.51563 5.85938L6.1875 6.1875Z" fill="#D19B61"/>
<path d="M9.09375 3.32812L9.42187 3.65625L9.75 3.32812L9.42187 3L9.09375 3.32812Z" fill="#D19B61"/>
<path d="M3.1875 9.51562L3.51562 9.84375L3.84375 9.51562L3.51562 9.1875L3.1875 9.51562Z" fill="#D19B61"/>
<path d="M2.90625 8.34375L3.23438 8.67187L3.5625 8.34375L3.23438 8.01562L2.90625 8.34375Z" fill="#D19B61"/>
<path d="M24.469 9.65625C24.9377 10.4531 24.2346 11.9062 23.2971 12.3281C21.9377 12.8906 21.1408 12.9844 20.2971 11.5313C20.0158 11.0156 19.6408 9.65625 19.7815 9.32812C19.969 8.85938 20.7658 7.92188 21.2815 7.92188C22.7346 7.96875 24.1408 9.09375 24.469 9.65625Z" fill="#332A23"/>
<path d="M24.2346 9.65625C24.5627 10.2188 23.719 11.9063 22.594 11.7656C21.0471 11.5781 21.1877 8.39062 21.844 8.39062C22.969 8.39062 24.0002 9.23438 24.2346 9.65625Z" fill="#332A23"/>
<path d="M8.81251 18.3281C8.15626 18.1406 7.68751 16.9688 7.96876 16.2656C8.39063 15.1875 8.81251 14.7188 10.0313 15.0469C10.4531 15.1875 11.4375 15.7031 11.5313 15.9375C11.6719 16.3125 11.7656 17.25 11.4844 17.5313C10.6875 18.3281 9.28126 18.4688 8.81251 18.3281Z" fill="#332A23"/>
<path d="M9.46858 17.2032C8.95296 17.0626 8.15608 15.4688 8.99983 15.3751C10.453 15.1407 11.578 15.8438 11.4373 16.6407C11.2967 17.4376 9.84358 17.297 9.46858 17.2032Z" fill="#332A23"/>
<path d="M18.3282 20.8593C18.4688 20.2968 19.5001 19.8749 20.1563 20.1562C21.0938 20.5312 21.5157 20.8593 21.1876 21.9374C21.0938 22.3124 20.6251 23.1562 20.3907 23.203C20.0626 23.3437 19.2657 23.3905 19.0313 23.1562C18.3282 22.4999 18.2345 21.2812 18.3282 20.8593Z" fill="#332A23"/>
<path d="M19.1251 20.4376C19.2189 20.0157 21.1876 20.6251 21.0001 21.3751C20.6251 22.6407 20.6251 22.8282 20.2501 22.7814C19.547 22.5939 19.0782 20.7657 19.1251 20.4376Z" fill="#332A23"/>
<path d="M6.04671 11.9532C6.60921 12.0939 7.03108 13.1251 6.74983 13.7814C6.37483 14.7189 5.48421 14.8595 4.49983 14.3439C3.65608 13.922 3.60921 12.422 3.84358 12.1407C4.54671 11.4376 5.62483 11.8595 6.04671 11.9532Z" fill="#332A23"/>
<path d="M6.28104 12.4688C6.56229 12.797 6.79667 14.1095 6.09354 13.922C4.82792 13.547 3.93729 12.2813 4.49979 12.0938C5.20292 11.8595 5.95292 12.0938 6.28104 12.4688Z" fill="#332A23"/>
<path d="M19.3408 7.55239L18.4127 6.62427L17.4846 7.55239L18.4127 8.48052L19.3408 7.55239Z" fill="#332A23"/>
<path d="M23.1064 15.6952L22.1788 14.7671L21.2507 15.6947L22.1783 16.6229L23.1064 15.6952Z" fill="#D19B61"/>
<path d="M13.7354 21.0053L12.8072 20.0771L11.8791 21.0053L12.8072 21.9334L13.7354 21.0053Z" fill="#D19B61"/>
<path d="M14.9819 18.4168L13.7224 17.1572L12.4629 18.4168L13.7224 19.6763L14.9819 18.4168Z" fill="#D19B61"/>
<path d="M18.4238 4.60646L17.1643 3.34692L15.9048 4.60646L17.1643 5.86599L18.4238 4.60646Z" fill="#D19B61"/>
<path d="M10.7241 21.725L9.796 20.7969L8.86787 21.725L9.796 22.6531L10.7241 21.725Z" fill="#332A23"/>
<path d="M6.99561 16.507L6.06748 15.5789L5.13936 16.507L6.06748 17.4351L6.99561 16.507Z" fill="#332A23"/>
<path d="M10.4004 11.5485L9.93633 11.0845L9.47227 11.5485L9.93633 12.0126L10.4004 11.5485Z" fill="#332A23"/>
<path d="M23.5659 17.9372L23.1019 17.4731L22.6378 17.9372L23.1019 18.4013L23.5659 17.9372Z" fill="#332A23"/>
</g>
<defs>
<clipPath id="clip0_2213_2701">
<rect width="30" height="30" fill="white" transform="matrix(-1 0 0 1 30 0)"/>
</clipPath>
</defs>
</svg>
