<svg width="46" height="46" viewBox="0 0 46 46" fill="none" xmlns="http://www.w3.org/2000/svg">
<path d="M40.6727 20.0911L38.8352 27.9286C37.2602 34.6973 34.1477 37.4348 28.2977 36.8723C27.3602 36.7973 26.3477 36.6286 25.2602 36.3661L22.1102 35.6161C14.2914 33.7598 11.8727 29.8973 13.7102 22.0598L15.5477 14.2036C15.9227 12.6098 16.3727 11.2223 16.9352 10.0786C19.1289 5.54107 22.8602 4.32232 29.1227 5.80357L32.2539 6.53482C40.1102 8.37232 42.5102 12.2536 40.6727 20.0911Z" stroke="#F4C419" stroke-width="1.8" stroke-linecap="round" stroke-linejoin="round"/>
<path d="M28.2977 36.8724C27.1352 37.6599 25.6727 38.3161 23.8914 38.8974L20.9289 39.8724C13.4852 42.2724 9.56643 40.2661 7.14768 32.8224L4.74768 25.4161C2.34768 17.9724 4.33518 14.0349 11.7789 11.6349L14.7414 10.6599C15.5102 10.4161 16.2414 10.2099 16.9352 10.0786C16.3727 11.2224 15.9227 12.6099 15.5477 14.2036L13.7102 22.0599C11.8727 29.8974 14.2914 33.7599 22.1102 35.6161L25.2602 36.3661C26.3477 36.6286 27.3602 36.7974 28.2977 36.8724Z" stroke="#F4C419" stroke-width="1.8" stroke-linecap="round" stroke-linejoin="round"/>
<path d="M22.2607 24.5474L31.3544 26.8536" stroke="#D0D0D0" stroke-width="1.8" stroke-linecap="round" stroke-linejoin="round"/>
<path d="M20.4231 28.8545L25.8606 30.242" stroke="#D0D0D0" stroke-width="1.8" stroke-linecap="round" stroke-linejoin="round"/>
</svg>
