<svg width="39" height="15" viewBox="0 0 39 15" fill="none" xmlns="http://www.w3.org/2000/svg">
<path d="M19.6337 9.464C20.4089 9.92013 20.7737 9.55529 21.1841 9.28174C21.5944 9.00819 21.8679 8.78012 21.5489 8.32397C21.2295 7.86784 21.1386 7.73108 20.637 7.6401C20.1354 7.54881 20.0899 7.18397 19.8163 7.6401C19.5428 8.09623 19.9076 7.77688 19.5428 8.09623C19.178 8.41559 18.8589 8.46107 19.2234 8.96271C19.6338 9.46401 19.6337 9.464 19.6337 9.464Z" fill="#D19B61"/>
<path d="M23.7377 8.36951C24.5129 8.82564 24.8777 8.46081 25.2881 8.18725C25.6984 7.9137 25.9719 7.68564 25.6529 7.22949C25.3336 6.77336 25.2426 6.63659 24.741 6.54562C24.2394 6.45433 24.1939 6.08949 23.9203 6.54562C23.6468 7.00175 24.0116 6.6824 23.6468 7.00175C23.282 7.32111 22.9629 7.36659 23.3274 7.86823C23.692 8.36952 23.7377 8.36951 23.7377 8.36951Z" fill="#D19B61"/>
<path d="M17.2626 13.9784C18.0378 14.4345 18.4026 14.0697 18.813 13.7961C19.2233 13.5226 19.4968 13.2945 19.1778 12.8384C18.8585 12.3822 18.7675 12.2455 18.2659 12.1545C17.7643 12.0632 17.7188 11.6984 17.4453 12.1545C17.1717 12.6106 17.5365 12.2913 17.1717 12.6106C16.8069 12.93 16.4878 12.9755 16.8523 13.4771C17.2627 13.9784 17.2626 13.9784 17.2626 13.9784Z" fill="#D19B61"/>
<path d="M1.4394 9.464C2.21456 9.92013 2.5794 9.55529 2.98972 9.28174C3.40005 9.00819 3.67359 8.78012 3.35456 8.32397C3.03521 7.86784 2.94424 7.73108 2.44264 7.6401C1.94103 7.54881 1.89554 7.18397 1.62201 7.6401C1.34846 8.09623 1.7133 7.77688 1.34846 8.09623C0.983616 8.41559 0.664587 8.46107 1.0291 8.96271C1.43943 9.46401 1.4394 9.464 1.4394 9.464Z" fill="#D19B61"/>
<path d="M9.10005 6.04408C9.87521 6.50021 10.24 6.13537 10.6504 5.86182C11.0607 5.58826 11.3342 5.3602 11.0152 4.90405C10.6959 4.44792 10.6049 4.31115 10.1033 4.22018C9.60167 4.12889 9.55619 3.76405 9.28265 4.22018C9.0091 4.67631 9.37394 4.35696 9.0091 4.67631C8.64426 4.99567 8.32523 5.04115 8.68975 5.54279C9.10007 6.04408 9.10005 6.04408 9.10005 6.04408Z" fill="#D19B61"/>
<path d="M19.6796 3.90067C19.5883 4.99515 19.8619 5.13195 20.318 5.13195C20.7741 5.13195 21.0019 5.04066 21.1386 4.76711C21.2754 4.49356 21.1386 4.03744 21.1386 4.03744C21.1386 4.03744 21.3209 3.12552 20.7738 3.26228C20.2267 3.39906 20.2267 3.03422 19.9532 3.44454C19.6796 3.90067 19.6796 3.90067 19.6796 3.90067Z" fill="#D19B61"/>
<path d="M11.9272 9.64628C11.8359 10.7408 12.1094 10.8776 12.5656 10.8776C13.0217 10.8776 13.2494 10.7863 13.3862 10.5127C13.523 10.2392 13.3862 9.78305 13.3862 9.78305C13.3862 9.78305 13.5685 8.87113 13.0214 9.00789C12.4743 9.14466 12.4743 8.77982 12.2007 9.19015C11.9272 9.64628 11.9272 9.64628 11.9272 9.64628Z" fill="#D19B61"/>
<path d="M15.3472 4.21994C15.9401 4.49349 16.4417 4.12865 17.1711 3.62704C17.8549 3.12542 17.4904 2.94317 17.3991 2.66927C17.3078 2.39572 17.4446 2.30444 17.1711 1.9396C15.9398 1.07312 15.6663 0.98184 15.1191 1.25573C14.572 1.52928 13.4775 1.80284 13.7056 2.57797C13.9337 3.39861 14.8456 3.0341 14.9824 3.35313C14.9824 3.35345 14.7546 3.94635 15.3472 4.21994Z" fill="#D19B61"/>
<path d="M30.3955 4.31108C29.9394 4.40237 29.8026 4.76721 29.8939 5.08624C29.9852 5.4056 29.8026 5.49657 30.2587 5.58786C30.7149 5.67915 30.6236 6.4085 31.6268 5.81592C32.63 5.22303 33.77 5.35979 32.8581 4.99529C31.9462 4.63045 31.5359 4.67593 31.5359 4.67593C31.5359 4.67593 31.3536 4.2198 31.0797 4.17432C30.8517 4.17432 30.3955 4.31108 30.3955 4.31108Z" fill="#D19B61"/>
<path d="M24.4219 0.800062C23.9658 0.891352 23.829 1.25619 23.9203 1.57522C24.0116 1.89458 23.829 1.98555 24.2851 2.07684C24.6954 2.16813 24.6499 2.89747 25.6532 2.3049C26.6564 1.71201 27.7964 1.84877 26.8845 1.48427C25.9722 1.11942 25.5164 1.16491 25.5164 1.16491C25.5164 1.16491 25.3341 0.708781 25.0603 0.663295C24.8322 0.61781 24.4219 0.800062 24.4219 0.800062Z" fill="#D19B61"/>
<path d="M28.024 10.7863C27.4769 9.82855 27.2033 9.82855 26.7927 10.1024C26.4278 10.3305 26.2911 10.5586 26.3366 10.8321C26.382 11.1057 26.7469 11.425 26.7469 11.425C26.7469 11.425 27.1117 12.2915 27.4766 11.8811C27.8414 11.4708 28.0237 11.7444 28.0237 11.2882C28.024 10.7863 28.024 10.7863 28.024 10.7863Z" fill="#D19B61"/>
<path d="M31.4442 8.14167C30.8058 8.27844 30.5777 8.82554 30.2587 9.64647C29.9393 10.4671 30.35 10.3761 30.5781 10.5584C30.8061 10.6952 30.7148 10.9232 31.1709 11.0145C32.6757 11.0145 32.9493 10.969 33.2687 10.4216C33.5881 9.87451 34.3632 9.05354 33.7248 8.50642C33.0865 7.9593 32.4936 8.73448 32.22 8.59771C32.2197 8.59771 32.0826 8.00481 31.4442 8.14158L31.4442 8.14167Z" fill="#D19B61"/>
<path d="M36.1866 0.66319C35.5483 0.799966 35.2747 1.34706 35.0009 2.16799C34.6815 2.98863 35.0922 2.89766 35.3202 3.07991C35.5483 3.21668 35.457 3.44475 35.9131 3.53604C37.4179 3.53604 37.6915 3.49055 38.0109 2.94314C38.3303 2.39604 39.1054 1.57506 38.467 1.02794C37.8286 0.480839 37.2357 1.25601 36.9622 1.11923C36.9619 1.11923 36.8251 0.571811 36.1868 0.663101L36.1866 0.66319Z" fill="#D19B61"/>
</svg>
