<svg width="24" height="25" viewBox="0 0 24 25" fill="none" xmlns="http://www.w3.org/2000/svg">
<path d="M12 6.79102V10.121" stroke="white" stroke-width="1.5" stroke-miterlimit="10" stroke-linecap="round"/>
<path d="M12.02 2.35101C8.34002 2.35101 5.36002 5.33101 5.36002 9.01101V11.111C5.36002 11.791 5.08002 12.811 4.73002 13.391L3.46002 15.511C2.68002 16.821 3.22002 18.281 4.66002 18.761C9.44002 20.351 14.61 20.351 19.39 18.761C20.74 18.311 21.32 16.731 20.59 15.511L19.32 13.391C18.97 12.811 18.69 11.781 18.69 11.111V9.01101C18.68 5.35101 15.68 2.35101 12.02 2.35101Z" stroke="white" stroke-width="1.5" stroke-miterlimit="10" stroke-linecap="round"/>
<path d="M15.33 19.171C15.33 21.001 13.83 22.501 12 22.501C11.09 22.501 10.25 22.121 9.64998 21.521C9.04998 20.921 8.66998 20.081 8.66998 19.171" stroke="white" stroke-width="1.5" stroke-miterlimit="10"/>
</svg>
