<svg width="77" height="76" viewBox="0 0 77 76" fill="none" xmlns="http://www.w3.org/2000/svg">
<path opacity="0.6" d="M76.3248 22.0134V45.0562L70.1574 39.759C67.2061 37.2239 62.4386 37.2239 59.4873 39.759L43.7471 53.2668C40.7958 55.8019 36.0283 55.8019 33.077 53.2668L31.7906 52.2074C29.1041 49.8615 24.8285 49.6344 21.8016 51.6776L3.18572 64.1639L2.76951 64.4666C1.36954 61.4396 0.650635 57.8451 0.650635 53.7208V22.0134C0.650635 8.24067 8.86128 0.0300293 22.634 0.0300293H54.3415C68.1142 0.0300293 76.3248 8.24067 76.3248 22.0134Z" fill="#F3F3F3"/>
<path d="M27.1403 31.7412C29.5286 31.7412 31.8191 30.7924 33.5079 29.1036C35.1967 27.4148 36.1455 25.1243 36.1455 22.7359C36.1455 20.3476 35.1967 18.0571 33.5079 16.3683C31.8191 14.6795 29.5286 13.7307 27.1403 13.7307C24.7519 13.7307 22.4614 14.6795 20.7726 16.3683C19.0838 18.0571 18.135 20.3476 18.135 22.7359C18.135 25.1243 19.0838 27.4148 20.7726 29.1036C22.4614 30.7924 24.7519 31.7412 27.1403 31.7412ZM76.3209 45.0522V53.7169C76.3209 67.4896 68.1103 75.7003 54.3376 75.7003H22.6301C12.9816 75.7003 6.01961 71.6517 2.76562 64.4627L3.18183 64.16L21.7977 51.6737C24.8246 49.6305 29.1002 49.8576 31.7867 52.2035L33.0731 53.2629C36.0244 55.798 40.7919 55.798 43.7432 53.2629L59.4834 39.7551C62.4347 37.22 67.2022 37.22 70.1535 39.7551L76.3209 45.0522Z" fill="#EDEDED"/>
</svg>
