<svg width="31" height="37" viewBox="0 0 31 37" fill="none" xmlns="http://www.w3.org/2000/svg">
<g clip-path="url(#clip0_731_2218)">
<path d="M4.21152 0.601388C2.11058 0.601388 0.401855 2.27215 0.401855 4.3198V32.883C0.401855 34.9336 2.11058 36.6014 4.21152 36.6014H26.5891C28.6901 36.6014 30.3988 34.9306 30.3988 32.883V9.39737C30.3988 9.39737 30.4596 8.70888 30.1525 8.04117C29.8667 7.41501 29.3985 6.9758 29.3985 6.9758C29.3985 6.9758 29.3985 6.97283 29.3955 6.96987L23.8406 1.65489C23.8406 1.65489 23.8345 1.64895 23.8315 1.64598C23.8315 1.64598 23.3572 1.20678 22.6548 0.910019C21.8278 0.565777 20.9765 0.601388 20.9765 0.601388H20.9887H4.21152Z" fill="#FF2116"/>
<path d="M4.21155 1.82413H20.9887C20.9887 1.82413 20.9978 1.82413 21.0008 1.82413C21.0008 1.82413 21.6728 1.83007 22.1623 2.03483C22.6336 2.23366 22.968 2.53339 22.9711 2.53339L28.5077 7.8365C28.5077 7.8365 28.8421 8.18074 29.0033 8.53389C29.134 8.81878 29.1431 9.34107 29.1431 9.34107C29.1431 9.34998 29.1431 9.35888 29.1431 9.36778V32.8831C29.1431 34.2778 28.0151 35.3818 26.5861 35.3818H4.21155C2.78254 35.3818 1.65454 34.2778 1.65454 32.8831V4.31989C1.65454 2.92512 2.78254 1.82117 4.21155 1.82117V1.82413Z" fill="#F5F5F5"/>
<path d="M7.89041 22.0364C7.02997 21.1966 7.96034 20.0422 10.49 18.8136L12.0801 18.042L12.7004 16.7185C13.0409 15.9914 13.5487 14.8014 13.8314 14.0773L14.3422 12.7626L13.9895 11.7893C13.5578 10.5904 13.4027 8.79198 13.6764 8.14505C14.0473 7.2696 15.2665 7.35863 15.7499 8.29936C16.127 9.03236 16.0874 10.3618 15.6405 12.0385L15.2756 13.4125L15.5979 13.9467C15.7743 14.2405 16.2942 14.9379 16.7502 15.4988L17.6077 16.5404L18.6748 16.4039C22.0619 15.9736 23.2233 16.7066 23.2233 17.7571C23.2233 19.0836 20.563 19.1934 18.3313 17.6622C17.8296 17.3179 17.483 16.9766 17.483 16.9766C17.483 16.9766 16.0844 17.2556 15.3942 17.4366C14.6828 17.6236 14.327 17.7423 13.2872 18.0835C13.2872 18.0835 12.9223 18.6029 12.6821 18.9768C11.7974 20.3775 10.7606 21.5378 10.0218 21.9622C9.19476 22.4341 8.32823 22.4667 7.89041 22.0423V22.0364ZM9.24341 21.5645C9.72684 21.2737 10.7059 20.1401 11.3869 19.0925L11.6606 18.6682L10.4109 19.2825C8.48026 20.2291 7.59549 21.1224 8.0546 21.6625C8.31303 21.9652 8.62012 21.9414 9.24341 21.5645ZM21.7883 18.1281C22.2626 17.8046 22.1926 17.1517 21.6575 16.8876C21.241 16.6828 20.9065 16.6413 19.8241 16.6561C19.1583 16.7006 18.0911 16.8312 17.9087 16.8698C17.9087 16.8698 18.4955 17.2675 18.7569 17.4129C19.1035 17.6058 19.9488 17.9648 20.563 18.1488C21.171 18.3299 21.5207 18.3121 21.7883 18.1251V18.1281ZM16.7442 16.0834C16.4584 15.7896 15.9689 15.1753 15.6618 14.7183C15.2574 14.2019 15.0537 13.8369 15.0537 13.8369C15.0537 13.8369 14.7588 14.7628 14.5155 15.3207L13.7585 17.1458L13.5395 17.5583C13.5395 17.5583 14.704 17.1844 15.2969 17.033C15.9263 16.8728 17.2002 16.6294 17.2002 16.6294L16.7411 16.0804L16.7442 16.0834ZM15.1175 9.72084C15.1905 9.12139 15.2209 8.5249 15.0233 8.2222C14.476 7.63759 13.8162 8.12427 13.9287 9.51311C13.9652 9.97902 14.0838 10.7773 14.2449 11.2699L14.5338 12.1632L14.7375 11.4895C14.85 11.1186 15.0202 10.3233 15.1175 9.72084Z" fill="#FF2116"/>
<path d="M9.35596 25.927H10.7546C11.2015 25.927 11.5633 25.9686 11.843 26.0516C12.1228 26.1318 12.3569 26.3128 12.5454 26.5977C12.7369 26.8766 12.8312 27.2149 12.8312 27.6096C12.8312 27.9717 12.7552 28.2862 12.6001 28.5474C12.445 28.8085 12.2383 28.9955 11.9768 29.1112C11.7184 29.227 11.317 29.2863 10.7758 29.2863H10.2924V31.4378H9.359V25.927H9.35596ZM10.2894 26.6333V28.5563H10.7515C11.165 28.5563 11.4508 28.4821 11.6089 28.3308C11.7701 28.1794 11.8491 27.9361 11.8491 27.5948C11.8491 27.3425 11.7974 27.1378 11.691 26.9805C11.5876 26.8203 11.4691 26.7253 11.3444 26.6897C11.2197 26.6511 11.0221 26.6333 10.7515 26.6333H10.2894ZM13.5457 25.927H14.8166C15.4308 25.927 15.9233 26.0338 16.2882 26.2445C16.6591 26.4582 16.9358 26.7728 17.1243 27.1942C17.3158 27.6126 17.4101 28.0785 17.4101 28.5919C17.4101 29.129 17.3249 29.6098 17.1547 30.0342C16.9875 30.4526 16.726 30.7939 16.3763 31.0521C16.0297 31.3102 15.5311 31.4408 14.8865 31.4408H13.5457V25.93V25.927ZM14.4791 26.657V30.7078H14.8683C15.4125 30.7078 15.8047 30.5238 16.051 30.1588C16.2973 29.7908 16.4189 29.2982 16.4189 28.6839C16.4189 27.3336 15.902 26.657 14.8683 26.657H14.4791ZM18.304 25.927H21.4387V26.657H19.2374V28.3041H21.0008V29.0341H19.2374V31.4378H18.304V25.927Z" fill="#2C2C2C"/>
</g>
<defs>
<clipPath id="clip0_731_2218">
<rect width="30" height="36" fill="white" transform="translate(0.401855 0.60144)"/>
</clipPath>
</defs>
</svg>
