<svg width="28" height="27" viewBox="0 0 28 27" fill="none" xmlns="http://www.w3.org/2000/svg">
<rect width="27.7941" height="27" rx="12" fill="#BE1D2C"/>
<g clip-path="url(#clip0_2261_2729)">
<path fill-rule="evenodd" clip-rule="evenodd" d="M19.5007 14.8549C19.1446 15.1987 18.9829 15.6942 19.0662 16.1802L19.6041 19.29C19.7717 20.258 18.9962 21.0442 18.1165 21.0442C17.8847 21.0442 17.6454 20.9894 17.4136 20.8687L14.5995 19.4004C14.3793 19.286 14.1383 19.2289 13.8965 19.2289C13.6556 19.2289 13.4146 19.286 13.1945 19.4004L10.3803 20.8687C10.1485 20.9894 9.90919 21.0442 9.67739 21.0442C8.7977 21.0442 8.02225 20.258 8.18985 19.29L8.72766 16.1802C8.81104 15.6942 8.64928 15.1987 8.29324 14.8549L6.01607 12.6528C5.12054 11.7864 5.615 10.2768 6.85239 10.0981L9.99924 9.64466C10.4912 9.57399 10.9165 9.26746 11.1357 8.82513L12.5432 5.99648C12.8201 5.4398 13.3587 5.16187 13.8965 5.16187C14.4352 5.16187 14.9738 5.4398 15.2507 5.99648L16.6582 8.82513C16.8775 9.26746 17.3027 9.57399 17.7947 9.64466L20.9415 10.0981C22.1789 10.2768 22.6734 11.7864 21.7778 12.6528L19.5007 14.8549Z" fill="#F4C419"/>
</g>
<defs>
<clipPath id="clip0_2261_2729">
<rect width="16.6765" height="16.6765" fill="white" transform="translate(5.55884 4.76477)"/>
</clipPath>
</defs>
</svg>
