<svg width="16" height="16" viewBox="0 0 20 21" fill="none" xmlns="http://www.w3.org/2000/svg">
<path d="M17.5 9.93437C17.5 14.3094 13.9583 17.851 9.58329 17.851C5.20829 17.851 1.66663 14.3094 1.66663 9.93437C1.66663 5.55937 5.20829 2.0177 9.58329 2.0177" stroke="#292D32" stroke-opacity="0.25" stroke-width="1.3" stroke-linecap="round" stroke-linejoin="round"/>
<path d="M18.3333 18.6844L16.6666 17.0177" stroke="#292D32" stroke-opacity="0.25" stroke-width="1.3" stroke-linecap="round" stroke-linejoin="round"/>
<path d="M12.0834 5.45937C11.7917 4.54271 12.1334 3.40104 13.1001 3.09271C13.6084 2.92604 14.2334 3.06771 14.5917 3.55937C14.9251 3.05104 15.5751 2.93437 16.0751 3.09271C17.0417 3.40104 17.3834 4.54271 17.0917 5.45937C16.6334 6.91771 15.0334 7.67604 14.5917 7.67604C14.1417 7.67604 12.5584 6.93437 12.0834 5.45937Z" stroke="#292D32" stroke-opacity="0.25" stroke-width="1.3" stroke-linecap="round" stroke-linejoin="round"/>
</svg>
