<svg width="20" height="20" viewBox="0 0 20 20" fill="none" xmlns="http://www.w3.org/2000/svg">
<path d="M10.365 12.834C11.6767 12.834 12.74 11.7707 12.74 10.459C12.74 9.14731 11.6767 8.08398 10.365 8.08398C9.05331 8.08398 7.98999 9.14731 7.98999 10.459C7.98999 11.7707 9.05331 12.834 10.365 12.834Z" stroke="#292D32" stroke-width="1.1" stroke-miterlimit="10" stroke-linecap="round" stroke-linejoin="round"/>
<path d="M2.44836 11.1557V9.76237C2.44836 8.93904 3.12128 8.2582 3.95253 8.2582C5.38545 8.2582 5.97128 7.24487 5.25086 6.00195C4.8392 5.28945 5.08461 4.3632 5.80503 3.95154L7.17461 3.16779C7.80003 2.7957 8.60753 3.01737 8.97961 3.64279L9.0667 3.7932C9.7792 5.03612 10.9509 5.03612 11.6713 3.7932L11.7584 3.64279C12.1304 3.01737 12.9379 2.7957 13.5634 3.16779L14.9329 3.95154C15.6534 4.3632 15.8988 5.28945 15.4871 6.00195C14.7667 7.24487 15.3525 8.2582 16.7854 8.2582C17.6088 8.2582 18.2896 8.93112 18.2896 9.76237V11.1557C18.2896 11.979 17.6167 12.6599 16.7854 12.6599C15.3525 12.6599 14.7667 13.6732 15.4871 14.9161C15.8988 15.6365 15.6534 16.5549 14.9329 16.9665L13.5634 17.7503C12.9379 18.1224 12.1304 17.9007 11.7584 17.2753L11.6713 17.1249C10.9588 15.882 9.78711 15.882 9.0667 17.1249L8.97961 17.2753C8.60753 17.9007 7.80003 18.1224 7.17461 17.7503L5.80503 16.9665C5.08461 16.5549 4.8392 15.6286 5.25086 14.9161C5.97128 13.6732 5.38545 12.6599 3.95253 12.6599C3.12128 12.6599 2.44836 11.979 2.44836 11.1557Z" stroke="#292D32" stroke-width="1.1" stroke-miterlimit="10" stroke-linecap="round" stroke-linejoin="round"/>
</svg>
