<svg width="22" height="21" viewBox="0 0 22 21" fill="none" xmlns="http://www.w3.org/2000/svg">
<path d="M21.205 10.472C21.205 16.1481 16.6033 20.7498 10.9272 20.7498C5.25112 20.7498 0.649414 16.1481 0.649414 10.472C0.649414 4.79592 5.25112 0.194214 10.9272 0.194214C16.6033 0.194214 21.205 4.79592 21.205 10.472Z" fill="#FFCC4D"/>
<path d="M16.1948 13.6273C16.0948 13.5362 15.9441 13.5307 15.8372 13.6116C15.8152 13.6273 13.624 15.2485 10.9278 15.2485C8.23846 15.2485 6.04039 13.628 6.01846 13.6116C5.91089 13.5314 5.76083 13.5382 5.66011 13.6273C5.56007 13.7178 5.53746 13.8671 5.60735 13.9815C5.6793 14.1035 7.42172 16.9402 10.9271 16.9402C14.4319 16.9402 16.175 14.1028 16.2476 13.9822C16.3168 13.8664 16.2949 13.7178 16.1948 13.6273ZM8.67013 9.62583C8.67013 10.7173 8.03839 11.6012 7.25933 11.6012C6.48028 11.6012 5.84854 10.7173 5.84854 9.62583C5.84854 8.5357 6.47959 7.65112 7.25933 7.65112C8.03907 7.65112 8.67013 8.53501 8.67013 9.62583ZM16.0057 9.62583C16.0057 10.7173 15.374 11.6012 14.5942 11.6012C13.8152 11.6012 13.1834 10.7173 13.1834 9.62583C13.1834 8.5357 13.8152 7.65112 14.5942 7.65112C15.374 7.65044 16.0057 8.53501 16.0057 9.62583Z" fill="#664500"/>
</svg>
