<svg width="21" height="21" viewBox="0 0 21 21" fill="none" xmlns="http://www.w3.org/2000/svg">
<path d="M10.4272 20.7498C16.0882 20.7498 20.6772 16.2726 20.6772 10.7498C20.6772 5.22691 16.0882 0.749756 10.4272 0.749756C4.76633 0.749756 0.177246 5.22691 0.177246 10.7498C0.177246 16.2726 4.76633 20.7498 10.4272 20.7498Z" fill="#FFCC4D"/>
<path d="M10.4275 12.4165C8.36437 12.4165 6.99542 12.182 5.30246 11.8609C4.91581 11.7881 4.16357 11.8609 4.16357 12.972C4.16357 15.1942 6.78017 17.972 10.4275 17.972C14.0742 17.972 16.6914 15.1942 16.6914 12.972C16.6914 11.8609 15.9391 11.7876 15.5525 11.8609C13.8595 12.182 12.4906 12.4165 10.4275 12.4165Z" fill="#664500"/>
<path d="M5.30225 12.9719C5.30225 12.9719 7.01058 13.5275 10.4272 13.5275C13.8439 13.5275 15.5522 12.9719 15.5522 12.9719C15.5522 12.9719 14.4134 15.1941 10.4272 15.1941C6.44113 15.1941 5.30225 12.9719 5.30225 12.9719Z" fill="white"/>
<path d="M7.01052 10.1942C7.79676 10.1942 8.43414 9.32363 8.43414 8.24974C8.43414 7.17586 7.79676 6.3053 7.01052 6.3053C6.22429 6.3053 5.58691 7.17586 5.58691 8.24974C5.58691 9.32363 6.22429 10.1942 7.01052 10.1942Z" fill="#664500"/>
<path d="M13.844 10.1942C14.6303 10.1942 15.2676 9.32363 15.2676 8.24974C15.2676 7.17586 14.6303 6.3053 13.844 6.3053C13.0578 6.3053 12.4204 7.17586 12.4204 8.24974C12.4204 9.32363 13.0578 10.1942 13.844 10.1942Z" fill="#664500"/>
</svg>
