<svg width="32" height="53" viewBox="0 0 32 53" fill="none" xmlns="http://www.w3.org/2000/svg">
<path d="M17.1152 0.351074C17.4913 0.432473 17.854 0.513871 18.2302 0.608836C19.7348 0.988695 21.0648 1.70771 22.247 2.71163C22.4216 2.86086 22.6769 2.96939 22.9053 2.98296C26.116 3.17288 28.1311 5.14001 28.3998 8.39595C28.561 10.2817 28.3326 12.1131 27.4997 13.8225C27.3385 14.1617 27.1504 14.4737 26.9355 14.7857C26.1966 15.871 26.1966 15.871 26.3041 17.2819C26.4384 17.3226 26.5728 17.3633 26.7071 17.404C28.6282 17.8517 29.9179 19.6018 29.7701 21.5961C29.6357 23.5225 28.064 25.0826 26.116 25.2183C25.8876 25.2318 25.7264 25.259 25.6324 25.5303C24.7995 27.7552 23.3755 29.5053 21.3872 30.7669C21.3603 30.7805 21.3469 30.8076 21.2932 30.8755C21.8977 31.0247 22.4888 31.1468 23.0665 31.3232C28.2117 32.8697 31.8389 37.618 31.9598 43.0445C32.027 45.8392 31.9733 48.6339 31.9733 51.415C31.9733 52.0662 31.6912 52.3375 31.0463 52.3375C21.0111 52.3375 10.9624 52.3375 0.927094 52.3375C0.309125 52.3375 0.0270096 52.0526 0.0270096 51.4421C0.0135755 50.3568 0.0135755 49.2715 0.0270096 48.1862C0.0270096 47.6028 0.335994 47.2501 0.806187 47.2637C1.24951 47.2772 1.53163 47.6164 1.53163 48.1726C1.53163 49.0273 1.53163 49.8956 1.53163 50.7774C3.04968 50.7774 4.514 50.7774 6.04548 50.7774C6.04548 50.5874 6.04548 50.4111 6.04548 50.2347C6.04548 48.5118 6.04548 46.7889 6.04548 45.0524C6.04548 44.4419 6.31416 44.1163 6.78436 44.1027C7.28142 44.0891 7.56353 44.4283 7.56353 45.0659C7.56353 46.9652 7.56353 48.8509 7.56353 50.7774C13.1924 50.7774 18.8079 50.7774 24.4636 50.7774C24.4636 50.3433 24.4636 49.9363 24.4636 49.5157C24.4636 48.037 24.4636 46.5718 24.4636 45.0931C24.4636 44.4419 24.7189 44.1027 25.2159 44.1027C25.713 44.1027 25.9817 44.4419 25.9817 45.0795C25.9817 46.7889 25.9817 48.4982 25.9817 50.2076C25.9817 50.3839 25.9817 50.5739 25.9817 50.7774C27.4863 50.7774 28.9506 50.7774 30.4552 50.7774C30.4687 50.6281 30.4821 50.4789 30.4821 50.3297C30.4821 48.0234 30.4955 45.7307 30.4821 43.4244C30.4687 40.8332 29.676 38.5133 28.0774 36.4784C27.8759 36.2342 27.6609 35.99 27.4191 35.7187C26.9758 36.2071 26.5593 36.6683 26.1429 37.1296C25.0816 38.3099 24.0337 39.4901 22.959 40.6568C22.6097 41.0367 22.1664 41.0774 21.844 40.7789C21.5216 40.494 21.5081 40.0464 21.8305 39.6529C21.9246 39.5308 22.032 39.4223 22.1261 39.3138C23.4158 37.8893 24.692 36.4513 25.9817 35.0268C26.0757 34.9318 26.1563 34.8233 26.2772 34.6741C25.8205 34.362 25.3906 34.0636 24.9069 33.7244C24.7054 33.9415 24.5174 34.1585 24.3293 34.362C21.844 37.1296 19.3452 39.8971 16.8599 42.6647C16.1614 43.438 15.8524 43.438 15.1538 42.6647C12.6416 39.87 10.1294 37.0753 7.61727 34.2806C7.45606 34.1043 7.29485 33.9415 7.10677 33.738C6.65001 34.05 6.20669 34.3485 5.72306 34.6741C5.84397 34.8233 5.93801 34.9318 6.03205 35.0404C9.10845 38.4591 12.1849 41.8778 15.2613 45.2965C15.8121 45.907 16.1882 45.907 16.7524 45.283C17.7063 44.2248 18.6601 43.1531 19.6273 42.0949C20.0035 41.6743 20.42 41.6201 20.7692 41.9049C21.1051 42.1898 21.132 42.6647 20.8095 43.031C19.7348 44.2384 18.6735 45.4593 17.5585 46.6261C16.645 47.5757 15.1807 47.4672 14.2537 46.4497C11.7953 43.7228 9.33683 40.996 6.87839 38.2556C6.13952 37.428 5.38721 36.6005 4.5946 35.7187C4.24531 36.1528 3.90946 36.5327 3.61391 36.9396C2.2705 38.8118 1.5988 40.9282 1.54506 43.248C1.53163 43.8178 1.54506 44.4012 1.53163 44.971C1.51819 45.4186 1.22264 45.7171 0.819621 45.7442C0.403164 45.7578 0.0673119 45.4593 0.0270096 44.9981C-0.537222 36.8989 4.86328 31.9608 10.2907 30.9976C10.425 30.9704 10.5728 30.9297 10.734 30.889C10.2638 30.5227 9.80703 30.2107 9.39057 29.858C8.03373 28.7048 7.02617 27.2804 6.4082 25.5981C6.31416 25.3404 6.20669 25.2318 5.91114 25.2183C3.9632 25.0826 2.39141 23.536 2.24363 21.6096C2.08243 19.6018 3.3721 17.8382 5.33347 17.3905C5.46782 17.3633 5.58872 17.3226 5.69619 17.2819C5.70963 17.2412 5.72306 17.2277 5.72306 17.2141C5.84397 16.4273 5.70963 15.8982 4.84985 15.4912C3.22432 14.7315 1.98839 13.4019 0.886791 11.9775C0.739016 11.7875 0.712148 11.367 0.819621 11.1499C0.927094 10.9329 1.27638 10.7972 1.54506 10.7294C2.3108 10.553 3.08998 10.4716 3.84229 10.2952C4.12441 10.2274 4.36622 10.0239 4.70207 9.84755C4.43339 9.72545 4.24531 9.64406 4.05724 9.54909C2.45858 8.70798 1.78688 7.26994 1.57193 5.56057C1.50476 5.07218 1.93465 4.67876 2.43171 4.74659C4.56773 5.05861 6.51567 4.61092 8.32928 3.43065C8.78603 3.13219 9.22936 3.22715 9.47117 3.62058C9.71299 4.014 9.57865 4.43456 9.10845 4.73302C7.44263 5.7912 5.65589 6.44239 3.65421 6.36099C3.58704 6.36099 3.51987 6.36099 3.4527 6.36099C3.42583 6.36099 3.39897 6.38812 3.3721 6.40169C3.493 7.45987 4.52743 8.35525 5.7768 8.46378C5.91114 8.47735 6.04548 8.46378 6.17982 8.47735C6.90526 8.50448 7.24112 9.12853 6.83809 9.75259C6.12609 10.8379 5.11853 11.5298 3.89603 11.9232C3.64078 12.0046 3.38553 12.0724 3.06311 12.1674C4.0841 13.212 5.10509 14.2295 6.51567 14.5687C7.22768 14.7315 8.04716 14.5687 8.78604 14.4194C11.0161 13.9446 12.8969 12.8322 14.4284 11.1228C14.9926 10.4987 15.4762 10.5259 15.9195 11.2313C16.1882 11.6383 16.4166 12.0724 16.5912 12.5337C16.7659 12.9678 16.8599 13.4426 16.9943 13.931C18.6198 13.4698 19.9901 12.6015 20.9439 11.1499C21.0111 11.055 21.0648 10.9464 21.132 10.8515C21.5887 10.0782 22.1798 10.0917 22.6634 10.8243C23.268 11.7197 23.9128 12.588 24.5442 13.4562C24.786 13.7818 25.0278 14.0938 25.31 14.4601C26.2772 13.3205 26.6668 12.1538 26.8415 10.9193C27.0161 9.77972 27.0161 8.62658 26.734 7.487C26.2772 5.6691 24.8532 4.59736 22.8112 4.57022C22.1933 4.55666 21.7634 4.35316 21.2932 3.95974C18.5661 1.62632 15.5702 1.32785 12.3595 2.87442C12.1983 2.95582 12.0237 3.03722 11.8624 3.11862C11.3654 3.34925 10.9489 3.22715 10.7474 2.79303C10.5593 2.3996 10.7205 1.99261 11.1907 1.76198C12.3864 1.15149 13.6357 0.663101 14.9791 0.473172C15.0598 0.459605 15.1269 0.418906 15.2075 0.378207C15.8524 0.351074 16.4838 0.351074 17.1152 0.351074ZM7.25455 16.1831C7.25455 18.0959 7.24111 19.9681 7.25455 21.8538C7.25455 22.3558 7.29485 22.8713 7.36202 23.3732C7.96656 27.6738 12.0774 31.0518 16.3763 30.7941C21.1991 30.4956 24.7457 26.7106 24.7726 21.8267C24.786 20.0902 24.7457 18.3401 24.786 16.6036C24.7995 15.9796 24.6114 15.5861 24.1546 15.1384C23.3217 14.3516 22.6097 13.4155 21.8171 12.5066C21.7902 12.5337 21.7499 12.6151 21.6828 12.6965C20.3259 14.3109 18.5661 15.2198 16.5241 15.5861C15.6777 15.7354 15.3687 15.4369 15.4225 14.5822C15.4628 13.931 15.3687 13.3205 15.006 12.7101C13.9313 13.7275 12.776 14.5415 11.4594 15.1249C10.1294 15.7218 8.7323 16.0474 7.25455 16.1831ZM12.8566 32.3271C11.3788 32.2728 9.96824 32.5034 8.57109 33.0732C10.0354 34.7012 11.4594 36.2749 12.9103 37.8893C13.5551 35.3524 13.5551 34.769 12.8566 32.3271ZM19.2243 32.3271C18.4586 34.1857 18.4989 36.0036 19.1303 37.8757C20.5677 36.2749 21.9917 34.6876 23.4561 33.0732C22.0589 32.517 20.6618 32.2864 19.2243 32.3271ZM16.0136 41.3487C16.5912 40.7111 17.142 40.1142 17.6525 39.5037C17.7331 39.4087 17.7466 39.1917 17.7197 39.0424C17.5585 38.0657 17.3839 37.0753 17.1958 36.1121C17.1689 35.9764 16.954 35.8001 16.8196 35.7865C16.2688 35.7458 15.718 35.7594 15.1672 35.7865C15.0463 35.8001 14.8448 35.9629 14.8179 36.085C14.6164 37.0753 14.4418 38.0657 14.2806 39.0696C14.2537 39.2188 14.3074 39.4494 14.4015 39.558C14.912 40.1549 15.4493 40.7111 16.0136 41.3487ZM5.7768 18.9506C4.6752 18.9913 3.76169 20.0766 3.74825 21.2569C3.73482 22.505 4.70207 23.6039 5.7768 23.631C5.7768 22.0709 5.7768 20.5107 5.7768 18.9506ZM26.2503 23.6446C27.4594 23.5225 28.3729 22.3829 28.2789 21.0805C28.1983 19.9681 27.2445 18.937 26.2503 18.9642C26.2503 20.5243 26.2503 22.0844 26.2503 23.6446ZM14.4284 32.3406C14.5627 32.9104 14.6567 33.4531 14.8045 33.9686C14.8314 34.0771 15.006 34.2264 15.1269 34.2399C15.7046 34.2671 16.2957 34.2671 16.8868 34.2399C16.9943 34.2399 17.1823 34.1178 17.2092 34.0229C17.357 33.4802 17.4645 32.924 17.5854 32.3406C16.5106 32.3406 15.5165 32.3406 14.4284 32.3406Z" fill="white"/>
<path d="M15.9732 26.8326C14.697 26.7919 13.5685 26.4121 12.7759 25.3268C12.6819 25.1911 12.5878 25.0419 12.5206 24.8926C12.346 24.4992 12.4803 24.0787 12.8296 23.8887C13.1789 23.6852 13.6357 23.7666 13.8237 24.1736C14.5089 25.6795 17.5047 25.6931 18.2033 24.1872C18.4048 23.7531 18.875 23.6852 19.2377 23.9023C19.587 24.1194 19.7079 24.5535 19.4795 24.974C18.7944 26.2086 17.6793 26.7241 16.3225 26.8326C16.2016 26.8326 16.0807 26.8326 15.9732 26.8326Z" fill="white"/>
<path d="M12.1717 20.063C12.1717 20.4158 12.1851 20.7685 12.1717 21.1212C12.1448 21.6096 11.8358 21.8945 11.4059 21.8809C10.976 21.8674 10.6939 21.5825 10.6805 21.0941C10.6671 20.4022 10.6671 19.7103 10.6805 19.0184C10.6939 18.5436 11.0029 18.2316 11.4059 18.218C11.8224 18.218 12.1179 18.5165 12.1717 18.9913C12.1717 19.0184 12.1717 19.0591 12.1717 19.0863C12.1717 19.4254 12.1717 19.751 12.1717 20.063Z" fill="white"/>
<path d="M21.3603 20.0359C21.3603 20.4022 21.3737 20.7821 21.3603 21.1484C21.3468 21.5825 21.105 21.8403 20.6886 21.881C20.2721 21.9217 19.9094 21.6639 19.8959 21.2162C19.8556 20.4429 19.8556 19.6696 19.8959 18.8964C19.9228 18.4758 20.2184 18.2316 20.6483 18.2316C21.0378 18.218 21.3468 18.5436 21.3737 18.9778C21.3737 19.3305 21.3603 19.6832 21.3603 20.0359Z" fill="white"/>
</svg>
