<svg width="17" height="17" viewBox="0 0 17 17" fill="none" xmlns="http://www.w3.org/2000/svg">
<circle cx="7.1932" cy="4.54134" r="2.58333" stroke="#BE1D2C" stroke-width="0.9"/>
<path d="M12.3875 8.65244L12.6537 8.28963H12.6537L12.3875 8.65244ZM13.0056 6.2795L12.6944 6.60454C12.8684 6.77116 13.1428 6.77116 13.3168 6.60454L13.0056 6.2795ZM13.6238 8.65245L13.3576 8.28963H13.3576L13.6238 8.65245ZM13.0056 8.9508L13.0056 9.4008H13.0056L13.0056 8.9508ZM12.6537 8.28963C12.3828 8.09086 12.0831 7.84178 11.8555 7.57866C11.6162 7.30194 11.5181 7.08012 11.5181 6.92881H10.6181C10.6181 7.41328 10.8962 7.84525 11.1748 8.16738C11.4651 8.50311 11.8251 8.79796 12.1213 9.01525L12.6537 8.28963ZM11.5181 6.92881C11.5181 6.54484 11.6946 6.36811 11.8588 6.31054C12.0356 6.24856 12.3481 6.27299 12.6944 6.60454L13.3168 5.95447C12.7913 5.45124 12.135 5.26001 11.5611 5.46122C10.9745 5.66684 10.6181 6.23216 10.6181 6.92881H11.5181ZM13.89 9.01526C14.1861 8.79797 14.5461 8.50312 14.8365 8.16739C15.115 7.84525 15.3931 7.41328 15.3931 6.92881H14.4931C14.4931 7.08012 14.395 7.30194 14.1557 7.57866C13.9282 7.84179 13.6285 8.09086 13.3576 8.28963L13.89 9.01526ZM15.3931 6.92881C15.3931 6.23215 15.0367 5.66684 14.4502 5.46122C13.8762 5.26001 13.22 5.45124 12.6944 5.95447L13.3168 6.60454C13.6631 6.27299 13.9756 6.24856 14.1524 6.31054C14.3167 6.36811 14.4931 6.54484 14.4931 6.92881H15.3931ZM12.1213 9.01525C12.3617 9.19166 12.6196 9.4008 13.0056 9.4008L13.0056 8.5008C12.9834 8.5008 12.9683 8.499 12.9289 8.47825C12.8707 8.44751 12.799 8.39629 12.6537 8.28963L12.1213 9.01525ZM13.3576 8.28963C13.2122 8.39629 13.1405 8.44751 13.0823 8.47825C13.043 8.499 13.0278 8.5008 13.0056 8.5008L13.0056 9.4008C13.3917 9.40081 13.6496 9.19166 13.89 9.01526L13.3576 8.28963Z" fill="#BE1D2C"/>
<path d="M12.3583 12.2917C12.3599 12.1856 12.3599 12.0779 12.3599 11.9687C12.3599 10.3637 10.0467 9.0625 7.19328 9.0625C4.33981 9.0625 2.02661 10.3637 2.02661 11.9687C2.02661 13.5738 2.02661 14.875 7.19328 14.875C8.63413 14.875 9.67317 14.7738 10.4224 14.593" stroke="#BE1D2C" stroke-width="0.9" stroke-linecap="round"/>
</svg>
