<svg width="17" height="17" viewBox="0 0 17 17" fill="none" xmlns="http://www.w3.org/2000/svg">
<path d="M7.9155 5.314C8.16883 4.85955 8.29549 4.63232 8.48486 4.63232C8.67424 4.63232 8.8009 4.85955 9.05423 5.314L9.11977 5.43157C9.19176 5.56071 9.22775 5.62528 9.28387 5.66789C9.34 5.71049 9.40989 5.7263 9.54969 5.75793L9.67696 5.78673C10.1689 5.89804 10.4149 5.95369 10.4734 6.14187C10.5319 6.33005 10.3642 6.52614 10.0288 6.91831L9.94208 7.01977C9.84678 7.13121 9.79913 7.18693 9.77769 7.25587C9.75625 7.3248 9.76346 7.39915 9.77787 7.54784L9.79098 7.6832C9.84169 8.20644 9.86704 8.46806 9.71383 8.58437C9.56063 8.70067 9.33033 8.59463 8.86973 8.38256L8.75057 8.32769C8.61968 8.26743 8.55423 8.23729 8.48486 8.23729C8.41549 8.23729 8.35005 8.26743 8.21916 8.32769L8.1 8.38256C7.6394 8.59463 7.4091 8.70067 7.25589 8.58437C7.10269 8.46806 7.12804 8.20644 7.17874 7.6832L7.19186 7.54784C7.20627 7.39915 7.21347 7.3248 7.19204 7.25587C7.1706 7.18693 7.12295 7.13121 7.02765 7.01977L6.94088 6.91831C6.60551 6.52614 6.43783 6.33005 6.49635 6.14187C6.55487 5.95369 6.80083 5.89804 7.29277 5.78673L7.42004 5.75793C7.55983 5.7263 7.62973 5.71049 7.68585 5.66789C7.74197 5.62528 7.77797 5.56071 7.84996 5.43157L7.9155 5.314Z" stroke="#BE1D2C" stroke-width="0.8"/>
<path d="M8.48478 11.3442L5.97048 13.9475C5.6104 14.3204 5.43036 14.5068 5.27789 14.5713C4.93046 14.7183 4.54506 14.5925 4.3623 14.2724C4.2821 14.132 4.2571 13.8786 4.20712 13.372C4.17889 13.0859 4.16478 12.9429 4.12195 12.8231C4.02606 12.5548 3.82455 12.3462 3.56552 12.2469C3.44981 12.2026 3.31167 12.188 3.03538 12.1587C2.54603 12.107 2.30135 12.0811 2.1657 11.9981C1.85659 11.8088 1.7351 11.4098 1.87707 11.05C1.93937 10.8922 2.11941 10.7058 2.47949 10.3329L4.12195 8.63232" stroke="#BE1D2C" stroke-width="0.8"/>
<path d="M8.48494 11.3442L10.9992 13.9475C11.3593 14.3204 11.5394 14.5068 11.6918 14.5713C12.0393 14.7183 12.4247 14.5925 12.6074 14.2724C12.6876 14.132 12.7126 13.8786 12.7626 13.372C12.7908 13.0859 12.8049 12.9429 12.8478 12.8231C12.9437 12.5548 13.1452 12.3462 13.4042 12.2469C13.5199 12.2026 13.6581 12.188 13.9344 12.1587C14.4237 12.107 14.6684 12.0811 14.804 11.9981C15.1131 11.8088 15.2346 11.4098 15.0927 11.05C15.0304 10.8922 14.8503 10.7058 14.4902 10.3329L12.8478 8.63232" stroke="#BE1D2C" stroke-width="0.8"/>
<path d="M4.15145 4.8971C3.93642 5.43355 3.81812 6.0192 3.81812 6.63249C3.81812 9.20982 5.90745 11.2992 8.48478 11.2992C11.0621 11.2992 13.1514 9.20982 13.1514 6.63249C13.1514 4.05516 11.0621 1.96582 8.48478 1.96582C7.8715 1.96582 7.28584 2.08412 6.74939 2.29915" stroke="#BE1D2C" stroke-width="0.8" stroke-linecap="round"/>
</svg>
