<svg width="16" height="16" viewBox="0 0 16 16" fill="none" xmlns="http://www.w3.org/2000/svg">
<g clip-path="url(#clip0_542_1903)">
<path d="M7.85365 9.57497L8.09096 9.25297V9.25297L7.85365 9.57497ZM8.48486 5.69867L8.19905 5.97852C8.2743 6.05536 8.37731 6.09867 8.48486 6.09867C8.59241 6.09867 8.69543 6.05536 8.77067 5.97852L8.48486 5.69867ZM9.11608 9.57498L8.87877 9.25298L8.87877 9.25298L9.11608 9.57498ZM8.48486 9.88878L8.48487 9.48878H8.48486L8.48486 9.88878ZM8.09096 9.25297C7.68691 8.95519 7.16747 8.53096 6.75299 8.05759C6.3261 7.57005 6.07236 7.0999 6.07236 6.70405H5.27236C5.27236 7.40357 5.69466 8.06331 6.15111 8.5846C6.61996 9.12007 7.19116 9.58362 7.61634 9.89697L8.09096 9.25297ZM6.07236 6.70405C6.07236 5.99056 6.39284 5.59521 6.74412 5.46386C7.09987 5.33083 7.64276 5.41037 8.19905 5.97852L8.77067 5.41883C8.06138 4.69442 7.19803 4.44003 6.46393 4.71453C5.72535 4.9907 5.27236 5.74432 5.27236 6.70405H6.07236ZM9.35339 9.89697C9.77857 9.58362 10.3498 9.12008 10.8186 8.58461C11.2751 8.06332 11.6974 7.40357 11.6974 6.70404H10.8974C10.8974 7.09991 10.6436 7.57006 10.2167 8.0576C9.80226 8.53097 9.28282 8.9552 8.87877 9.25298L9.35339 9.89697ZM11.6974 6.70404C11.6974 5.74431 11.2444 4.99069 10.5058 4.71453C9.7717 4.44003 8.90834 4.69442 8.19905 5.41883L8.77067 5.97852C9.32696 5.41037 9.86986 5.33083 10.2256 5.46385C10.5769 5.5952 10.8974 5.99055 10.8974 6.70404H11.6974ZM7.61634 9.89697C7.86687 10.0816 8.1215 10.2888 8.48486 10.2888L8.48486 9.48878C8.46188 9.48878 8.44011 9.48617 8.38905 9.45853C8.32248 9.42251 8.24136 9.36381 8.09096 9.25297L7.61634 9.89697ZM8.87877 9.25298C8.72837 9.36382 8.64725 9.42251 8.58068 9.45854C8.52962 9.48617 8.50785 9.48878 8.48487 9.48878L8.48486 10.2888C8.84823 10.2888 9.10286 10.0816 9.35339 9.89697L8.87877 9.25298Z" fill="#BE1D2C"/>
<path d="M9.16402 13.9996L9.50824 14.2034V14.2034L9.16402 13.9996ZM9.50283 13.4272L9.15861 13.2235L9.50283 13.4272ZM7.46687 13.4272L7.12265 13.631H7.12265L7.46687 13.4272ZM7.80568 13.9996L8.1499 13.7959L7.80568 13.9996ZM1.83486 7.19482C1.83486 7.41574 2.01395 7.59482 2.23486 7.59482C2.45578 7.59482 2.63486 7.41574 2.63486 7.19482H1.83486ZM2.84229 10.4251C2.75775 10.221 2.52376 10.1241 2.31967 10.2087C2.11557 10.2932 2.01865 10.5272 2.10319 10.7313L2.84229 10.4251ZM5.85335 12.502L5.84646 12.9019H5.84646L5.85335 12.502ZM4.16398 12.2694L4.0109 12.639H4.0109L4.16398 12.2694ZM14.497 10.5782L14.8665 10.7313L14.497 10.5782ZM11.1163 12.502L11.1095 12.102L11.1163 12.502ZM12.8057 12.2694L12.9588 12.639L12.8057 12.2694ZM13.2427 2.34282L13.0337 2.68388L13.2427 2.34282ZM14.2744 3.37452L14.6154 3.16552V3.16552L14.2744 3.37452ZM3.72705 2.34282L3.51806 2.00177V2.00177L3.72705 2.34282ZM2.69536 3.37452L2.35431 3.16552L2.35431 3.16552L2.69536 3.37452ZM6.86161 12.6385L7.06271 12.2927L7.06271 12.2927L6.86161 12.6385ZM9.50824 14.2034L9.84705 13.631L9.15861 13.2235L8.8198 13.7959L9.50824 14.2034ZM7.12265 13.631L7.46146 14.2034L8.1499 13.7959L7.81109 13.2235L7.12265 13.631ZM8.8198 13.7959C8.67271 14.0444 8.29699 14.0444 8.1499 13.7959L7.46146 14.2034C7.91832 14.9752 9.05138 14.9752 9.50824 14.2034L8.8198 13.7959ZM7.54736 2.28232H9.42236V1.48232H7.54736V2.28232ZM14.3349 7.19482V7.81982H15.1349V7.19482H14.3349ZM5.86024 12.102C5.0756 12.0885 4.65259 12.0389 4.31705 11.8999L4.0109 12.639C4.50075 12.8419 5.0619 12.8884 5.84646 12.9019L5.86024 12.102ZM2.10319 10.7313C2.46095 11.595 3.14718 12.2812 4.0109 12.639L4.31705 11.8999C3.64935 11.6233 3.11886 11.0928 2.84229 10.4251L2.10319 10.7313ZM14.3349 7.81982C14.3349 8.55333 14.3346 9.08343 14.3061 9.50246C14.2777 9.91789 14.2228 10.1949 14.1274 10.4251L14.8665 10.7313C15.009 10.3873 15.0731 10.0131 15.1042 9.55691C15.1351 9.10434 15.1349 8.54239 15.1349 7.81982H14.3349ZM11.1232 12.9019C11.9078 12.8884 12.469 12.8419 12.9588 12.639L12.6527 11.8999C12.3171 12.0389 11.8941 12.0885 11.1095 12.102L11.1232 12.9019ZM14.1274 10.4251C13.8509 11.0928 13.3204 11.6233 12.6527 11.8999L12.9588 12.639C13.8225 12.2812 14.5088 11.595 14.8665 10.7313L14.1274 10.4251ZM9.42236 2.28232C10.4531 2.28232 11.198 2.28275 11.7801 2.33809C12.3562 2.39287 12.7313 2.49862 13.0337 2.68388L13.4517 2.00177C13.0025 1.72653 12.4905 1.60203 11.8558 1.54168C11.2271 1.4819 10.4376 1.48232 9.42236 1.48232V2.28232ZM15.1349 7.19482C15.1349 6.17962 15.1353 5.39013 15.0755 4.7614C15.0152 4.12671 14.8907 3.61466 14.6154 3.16552L13.9333 3.58352C14.1186 3.88584 14.2243 4.26099 14.2791 4.83712C14.3344 5.4192 14.3349 6.16413 14.3349 7.19482H15.1349ZM13.0337 2.68388C13.4003 2.90857 13.7086 3.21685 13.9333 3.58352L14.6154 3.16552C14.3248 2.69121 13.926 2.29242 13.4517 2.00177L13.0337 2.68388ZM7.54736 1.48232C6.53216 1.48232 5.74267 1.4819 5.11394 1.54168C4.47925 1.60203 3.9672 1.72653 3.51806 2.00177L3.93605 2.68388C4.23838 2.49862 4.61353 2.39287 5.18966 2.33809C5.77174 2.28275 6.51667 2.28232 7.54736 2.28232V1.48232ZM2.63486 7.19482C2.63486 6.16413 2.63529 5.4192 2.69063 4.83712C2.74541 4.26099 2.85116 3.88584 3.03642 3.58352L2.35431 3.16552C2.07907 3.61466 1.95457 4.12671 1.89422 4.7614C1.83444 5.39013 1.83486 6.17962 1.83486 7.19482H2.63486ZM3.51806 2.00177C3.04375 2.29242 2.64496 2.69121 2.35431 3.16552L3.03642 3.58352C3.26111 3.21685 3.56939 2.90857 3.93605 2.68388L3.51806 2.00177ZM7.81109 13.2235C7.68353 13.008 7.57402 12.8221 7.46809 12.6768C7.35724 12.5247 7.23301 12.3918 7.06271 12.2927L6.6605 12.9842C6.70126 13.008 6.74827 13.0474 6.82158 13.148C6.89981 13.2553 6.9874 13.4025 7.12265 13.631L7.81109 13.2235ZM5.84646 12.9019C6.11962 12.9066 6.29718 12.9101 6.43361 12.9252C6.56262 12.9395 6.62106 12.9613 6.6605 12.9842L7.06271 12.2927C6.8911 12.1929 6.71114 12.151 6.52165 12.1301C6.33959 12.1099 6.11855 12.1065 5.86024 12.102L5.84646 12.9019ZM9.84705 13.631C9.9823 13.4025 10.0699 13.2553 10.1481 13.148C10.2214 13.0474 10.2684 13.008 10.3092 12.9842L9.90699 12.2927C9.73669 12.3918 9.61246 12.5247 9.50161 12.6768C9.39568 12.8221 9.28617 13.008 9.15861 13.2235L9.84705 13.631ZM11.1095 12.102C10.8512 12.1065 10.6301 12.1099 10.448 12.1301C10.2586 12.151 10.0786 12.1929 9.90699 12.2927L10.3092 12.9842C10.3486 12.9613 10.4071 12.9395 10.5361 12.9252C10.6725 12.9101 10.8501 12.9066 11.1232 12.9019L11.1095 12.102Z" fill="#BE1D2C"/>
</g>
<defs>
<clipPath id="clip0_542_1903">
<rect width="15" height="15" fill="white" transform="translate(0.984863 0.632324)"/>
</clipPath>
</defs>
</svg>
