<svg width="17" height="17" viewBox="0 0 17 17" fill="none" xmlns="http://www.w3.org/2000/svg">
<path d="M7.00659 2.59921C7.95393 2.15508 9.01557 2.15508 9.96291 2.59921L14.4237 4.69054C15.394 5.14544 15.394 6.72015 14.4237 7.17505L9.96297 9.26635C9.01563 9.71048 7.95399 9.71048 7.00665 9.26635L2.54585 7.17502C1.57554 6.72012 1.57554 5.14541 2.54585 4.69051L4.48478 3.78149" stroke="#BE1D2C" stroke-width="0.9" stroke-linecap="round"/>
<path d="M1.81812 5.93262V9.59928" stroke="#BE1D2C" stroke-width="0.9" stroke-linecap="round"/>
<path d="M8.48478 14.266C7.28744 14.266 5.72058 13.5184 4.74167 12.9763C4.15378 12.6508 3.81812 12.0216 3.81812 11.3496V7.93262M13.1514 7.93262V11.3496C13.1514 12.0216 12.8158 12.6508 12.2279 12.9763C11.8743 13.1722 11.444 13.3948 10.9821 13.5993" stroke="#BE1D2C" stroke-width="0.9" stroke-linecap="round"/>
</svg>
