<svg width="21" height="21" viewBox="0 0 21 21" fill="none" xmlns="http://www.w3.org/2000/svg">
<g clip-path="url(#clip0_542_1906)">
<path d="M7.78101 12.4951C8.52888 12.9294 9.44338 13.1931 10.4347 13.2117C11.426 13.2302 12.3498 13.0011 13.1134 12.5951" stroke="#BE1D2C" stroke-width="0.9" stroke-linecap="round"/>
<ellipse cx="12.5033" cy="9.58312" rx="0.666667" ry="1" transform="rotate(1.07422 12.5033 9.58312)" fill="#BE1D2C"/>
<ellipse cx="8.504" cy="9.50793" rx="0.666667" ry="1" transform="rotate(1.07422 8.504 9.50793)" fill="#BE1D2C"/>
<path d="M16.555 10.6592C16.5014 13.5207 16.4746 14.9514 15.5689 15.8237C14.6633 16.6959 13.2326 16.6691 10.3711 16.6155C7.50966 16.5618 6.07892 16.535 5.20665 15.6294C4.33437 14.7238 4.3612 13.293 4.41485 10.4315C4.46851 7.57008 4.49534 6.13934 5.40095 5.26706C6.30656 4.39479 7.7373 4.42162 10.5988 4.47527C13.4602 4.52893 14.891 4.55575 15.7632 5.46137C16.3017 6.02043 16.4976 6.77963 16.556 7.95201" stroke="#BE1D2C" stroke-width="0.9" stroke-linecap="round"/>
<path d="M10.3871 13.2925L10.5135 14.0045C10.6091 14.5428 11.1193 14.9045 11.6589 14.8166C12.2094 14.7268 12.5801 14.2041 12.4825 13.6549L12.361 12.9707" stroke="#BE1D2C" stroke-width="0.9"/>
</g>
<defs>
<clipPath id="clip0_542_1906">
<rect width="16" height="16" fill="white" transform="translate(5.0127 0.643066) rotate(16.0742)"/>
</clipPath>
</defs>
</svg>
