<svg width="48" height="48" viewBox="0 0 48 48" fill="none" xmlns="http://www.w3.org/2000/svg">
<path d="M32.619 44.3979C32.619 45.3781 32.619 46.3323 32.619 47.3125C32.0958 47.3125 31.6118 47.3125 31.0493 47.3125C31.0493 46.476 31.0493 45.6395 31.0493 44.79C31.0493 44.045 31.0493 44.0581 30.3298 43.9143C29.5449 43.7574 28.7601 43.6006 27.9752 43.4438C27.3081 43.3 27.1249 43.0909 27.1249 42.4112C27.1249 39.196 27.1249 35.9807 27.1249 32.7654C27.1249 32.6217 27.1249 32.491 27.1249 32.3472C27.0857 32.3341 27.0595 32.3341 27.0203 32.321C26.5625 33.1706 26.0915 34.0202 25.6337 34.8697C25.5421 35.0266 25.4636 35.1965 25.3459 35.3272C24.9666 35.7585 24.3648 35.667 24.0509 35.1181C23.6192 34.3731 23.2137 33.6019 22.8082 32.8439C21.8271 31.0402 20.8329 29.2496 19.8649 27.4328C19.6818 27.0799 19.4594 26.9623 19.067 26.9753C18.1252 27.0276 17.1702 26.9492 16.2415 27.093C14.9072 27.289 13.9523 28.0863 13.416 29.328C13.0235 30.2037 12.6834 31.1055 12.3302 31.9943C12.2779 32.1119 12.2387 32.2426 12.2387 32.3733C12.2387 35.4187 12.2387 38.4771 12.2387 41.627C12.3433 41.4702 12.4087 41.3917 12.461 41.3003C13.5729 39.2352 14.6848 37.1701 15.7967 35.105C16.1499 34.4515 16.4508 33.7588 16.8563 33.1314C17.1441 32.6739 17.5627 32.2949 17.9682 31.8374C18.3344 32.2818 18.6615 32.6609 19.0016 33.066C18.269 33.7457 17.6935 34.5038 17.3926 35.4317C16.8301 37.1831 17.0525 38.8169 18.1382 40.3069C18.3999 40.6729 18.5307 41.0258 18.5176 41.4702C18.5045 43.2346 18.5045 44.9991 18.5045 46.7505C18.5045 46.9204 18.5045 47.1034 18.5045 47.3125C17.9813 47.3125 17.4973 47.3125 16.9348 47.3125C16.9348 47.1557 16.9348 46.9858 16.9348 46.8159C16.9348 45.156 16.9479 43.483 16.9217 41.8231C16.9217 41.5486 16.804 41.2741 16.6862 41.0127C16.333 40.2677 15.9668 39.5358 15.6005 38.8038C15.5482 38.8953 15.4697 39.013 15.4043 39.1306C14.2401 41.3003 13.0889 43.4699 11.9378 45.6395C11.2053 47.025 9.55704 47.6785 7.89574 47.208C6.35217 46.7767 5.30569 45.3259 5.41033 43.7052C5.52806 41.8884 5.69812 40.0586 5.82893 38.2418C5.9205 36.8564 5.97282 35.484 6.03823 34.0594C5.60655 34.0332 5.25336 34.0332 4.90017 33.994C3.63131 33.8503 2.54558 33.249 1.48601 32.6086C0.818874 32.2034 0.518009 31.5238 0.504928 30.7396C0.491847 30.0207 0.491847 29.3018 0.504928 28.583C0.518009 27.1714 1.81304 26.361 3.06882 27.0146C4.61239 27.8118 5.12255 27.8118 6.90158 27.7465C6.83617 27.1975 6.66612 26.6355 6.71844 26.0866C6.82309 25.0671 7.67336 24.2829 8.64136 24.1522C9.68785 24.0215 10.6297 24.5312 11.0744 25.4984C11.2707 25.9428 11.4407 26.4003 11.6239 26.8577C11.7939 27.289 11.977 27.7334 12.1471 28.1647C12.8142 27.6681 12.8011 27.0146 12.6965 26.3088C12.4087 24.4659 12.4349 22.623 12.9581 20.8324C13.2459 19.839 13.6645 18.8718 13.9915 17.8785C14.6456 15.8918 14.4886 13.8529 14.3447 11.8139C14.0046 7.06947 16.5816 2.8478 20.8983 1.10947C27.295 -1.46536 34.4503 2.79552 35.1567 9.67043C35.3006 11.0167 35.1829 12.4021 35.1175 13.7745C35.039 15.3952 35.1436 17.0028 35.7977 18.4797C37.0012 21.2375 37.2759 24.0607 36.818 27.0015C36.7919 27.2106 36.8834 27.4589 36.9881 27.6681C37.3151 28.3869 37.6814 29.1058 38.0215 29.8116C38.0869 29.9423 38.1392 30.073 38.2046 30.2037C39.5912 29.5632 41.0694 29.5371 42.5083 29.2626C43.7902 29.0143 45.0853 28.8313 46.3672 28.6091C47.1521 28.4784 47.5053 28.766 47.5053 29.5632C47.5053 33.8503 47.5053 38.1373 47.5053 42.4374C47.5053 42.9079 47.3614 43.2608 46.8905 43.4307C46.7858 43.4699 46.7073 43.6267 46.6681 43.7574C46.4719 44.411 46.0402 44.8031 45.36 44.9207C45.1638 44.9599 44.9806 44.9991 44.7844 45.0122C43.9603 45.1037 43.3324 45.3259 42.7699 46.1362C41.4356 48.0575 38.5055 47.6654 37.4982 45.5219C37.3151 45.1167 37.0927 45.0252 36.661 44.986C35.4314 44.8684 34.2149 44.6462 32.9983 44.4763C32.8937 44.4371 32.776 44.424 32.619 44.3979ZM14.2531 26.0735C14.8026 25.8905 15.2866 25.6683 15.7836 25.5638C16.2938 25.4592 16.817 25.4331 17.3403 25.42C18.3214 25.3939 19.3025 25.3939 20.2835 25.42C20.7414 25.4331 20.8853 25.2501 20.8722 24.8188C20.846 24.0215 20.846 23.2242 20.8722 22.4269C20.8853 22.1263 20.7806 21.9695 20.5321 21.7996C18.5307 20.4795 17.2749 18.6235 17.0394 16.2317C16.8824 14.5979 16.9479 12.938 16.9609 11.2911C16.9609 11.0689 17.1702 10.7683 17.3795 10.6246C18.91 9.53973 20.0481 8.14122 20.8591 6.46824C21.2123 5.72324 21.6963 5.63175 22.3373 6.1807C25.0843 8.52026 28.2499 9.97105 31.808 10.5331C32.3966 10.6246 32.619 10.886 32.619 11.4872C32.619 12.6243 32.619 13.7745 32.619 14.9116C32.6321 17.8785 31.4286 20.1919 28.9563 21.8649C28.8255 21.9564 28.7077 22.1655 28.7077 22.3224C28.6816 23.1589 28.7078 23.9823 28.6947 24.8188C28.6816 25.2631 28.8386 25.4331 29.2964 25.42C30.3952 25.3939 31.494 25.3546 32.5798 25.4331C33.3515 25.4853 34.0972 25.7467 34.8559 25.9167C34.9998 25.9559 35.1436 26.0343 35.3268 26.1127C35.3529 25.9689 35.366 25.8774 35.3791 25.786C35.6931 23.551 35.3399 21.4074 34.4634 19.3293C33.7178 17.5387 33.4562 15.6566 33.5739 13.7353C33.6262 12.8073 33.7047 11.8793 33.7047 10.9513C33.6655 7.47464 32.1742 4.76912 29.1263 3.07C26.1046 1.38394 22.9913 1.46236 20.0612 3.31833C16.974 5.27885 15.6528 8.20657 15.9406 11.827C16.1761 14.7417 15.9929 17.5648 14.8026 20.3096C13.9915 22.1263 13.9523 24.0999 14.2531 26.0735ZM21.9056 7.85368C21.0684 9.35675 20.0088 10.5853 18.7007 11.6048C18.583 11.6963 18.5176 11.9054 18.5176 12.0623C18.5045 13.1602 18.5045 14.245 18.5176 15.3429C18.5568 18.5059 20.9637 21.1199 24.1948 21.4859C27.1903 21.8257 30.2252 19.7606 30.8269 16.7545C31.1408 15.2253 31.0493 13.6176 31.1408 12.0231C27.6743 11.3565 24.6395 9.99719 21.9056 7.85368ZM34.9213 43.2346C34.9474 43.1562 34.9736 43.117 34.9736 43.0647C34.9736 40.0978 34.9867 37.1309 34.9605 34.1639C34.9605 34.0463 34.7643 33.8503 34.6335 33.8241C33.4823 33.5758 32.3312 33.3536 31.1801 33.1183C30.369 32.9615 29.558 32.7916 28.747 32.6347C28.747 35.7846 28.747 38.8953 28.747 41.993C30.8269 42.4243 32.8675 42.8295 34.9213 43.2346ZM45.9225 32.6739C45.844 32.6739 45.7786 32.6609 45.7132 32.6739C43.8556 33.0399 42.0112 33.432 40.1537 33.7718C39.7743 33.8372 39.6566 33.9679 39.6566 34.36C39.6697 37.1439 39.6697 39.941 39.6697 42.7249C39.6697 42.8817 39.6697 43.0386 39.6697 43.2346C39.9575 43.1693 40.1929 43.117 40.4546 43.0647C40.4546 42.6334 40.4807 42.2282 40.4546 41.8231C40.3368 39.8887 40.9516 39.2221 42.7699 39.0522C43.8164 38.9476 44.8498 38.4248 45.9225 38.9738C45.9225 36.8564 45.9225 34.7782 45.9225 32.6739ZM2.08774 28.3346C2.08774 29.2365 2.07466 30.073 2.10082 30.9095C2.10082 31.0532 2.25779 31.2624 2.40169 31.3277C3.44817 31.8897 4.4685 32.491 5.72428 32.4648C7.0978 32.4256 8.45823 32.4517 9.83174 32.4517C10.1064 32.4517 10.3681 32.4517 10.6689 32.4517C10.6689 31.1839 10.6689 29.9815 10.6689 28.779C10.6689 28.6875 10.6297 28.583 10.5904 28.5046C10.2896 27.7465 10.0018 26.9884 9.68785 26.2434C9.49163 25.7598 9.08612 25.5768 8.66753 25.7598C8.26201 25.9428 8.11812 26.3741 8.3405 26.8316C8.5498 27.276 8.78526 27.6942 8.99455 28.1386C9.28234 28.766 8.94223 29.3018 8.24893 29.3149C7.77801 29.328 7.30709 29.3018 6.83617 29.328C5.26644 29.4064 3.74904 29.2496 2.36244 28.4C2.3232 28.3739 2.24471 28.3739 2.08774 28.3346ZM21.33 26.8316C21.6178 27.3544 21.8663 27.851 22.1541 28.3216C22.2326 28.4392 22.4288 28.5438 22.5727 28.5438C24.0509 28.5568 25.5421 28.5568 27.0203 28.5438C27.1642 28.5438 27.3604 28.4392 27.4389 28.3216C27.7267 27.851 27.9752 27.3544 28.263 26.8316C27.295 26.3349 27.0857 25.4984 27.138 24.5182C27.1642 23.93 27.138 23.3549 27.138 22.7145C25.5552 23.185 24.0116 23.1719 22.4419 22.7145C22.4419 23.4203 22.4157 24.0738 22.4419 24.7142C22.4812 25.6291 22.1934 26.348 21.33 26.8316ZM7.49023 37.1701C7.32017 39.4574 7.12396 41.6924 6.99315 43.9274C6.96698 44.3064 7.18936 44.7508 7.42482 45.0775C7.88266 45.718 8.70677 45.901 9.43931 45.6526C10.1849 45.3912 10.6689 44.7116 10.682 43.9012C10.6951 41.7577 10.682 39.6011 10.682 37.4576C10.682 37.3661 10.6559 37.2746 10.6428 37.1701C9.59628 37.1701 8.57596 37.1701 7.49023 37.1701ZM38.0738 43.4045C38.0738 40.2677 38.0738 37.157 38.0738 34.0724C37.5375 34.0724 37.0535 34.0724 36.5695 34.0724C36.5695 37.2093 36.5695 40.2938 36.5695 43.4045C37.0666 43.4045 37.5506 43.4045 38.0738 43.4045ZM36.4518 30.1906C35.9678 28.4131 34.8297 27.276 33.1684 27.0538C32.1742 26.9231 31.1539 26.9884 30.1467 26.9884C30.0551 26.9884 29.9243 27.0668 29.885 27.1453C29.5973 27.6419 29.3226 28.1647 29.0217 28.7137C30.0943 28.8967 31.1147 29.0404 32.1088 29.2365C33.5347 29.524 35.039 29.5371 36.4518 30.1906ZM45.1507 43.3653C45.1507 42.4374 45.1507 41.5486 45.1507 40.6729C45.1507 40.3592 45.0068 40.2677 44.719 40.32C43.9472 40.4507 43.1754 40.5683 42.4036 40.7252C42.2598 40.7513 42.0374 40.9474 42.0243 41.065C41.9981 41.993 42.0112 42.921 42.0112 43.8881C43.0839 43.7052 44.0911 43.5353 45.1507 43.3653ZM28.7208 31.0532C31.2716 31.5499 33.7832 32.0466 36.3733 32.5563C36.0201 31.759 35.5622 31.4061 34.8297 31.2885C33.5216 31.0663 32.2004 30.8441 30.8792 30.6219C30.1597 30.5043 29.4534 30.3997 28.7077 30.2821C28.7208 30.5566 28.7208 30.7788 28.7208 31.0532ZM38.2439 32.5563C40.8862 32.0335 43.3978 31.5368 45.9094 31.0402C45.9094 30.7526 45.9094 30.5304 45.9094 30.2952C45.8178 30.2952 45.7524 30.2821 45.7001 30.2952C43.6725 30.635 41.658 30.9487 39.6435 31.3146C39.0287 31.4192 38.5578 31.7982 38.2439 32.5563ZM23.1221 30.1253C23.6846 31.1578 24.2209 32.125 24.7834 33.1706C25.359 32.0989 25.8953 31.1447 26.4316 30.1253C25.3197 30.1253 24.2602 30.1253 23.1221 30.1253ZM10.6558 34.0594C9.59628 34.0594 8.57596 34.0594 7.5818 34.0594C7.5818 34.5953 7.5818 35.0788 7.5818 35.5624C8.62828 35.5624 9.63552 35.5624 10.6558 35.5624C10.6558 35.0527 10.6558 34.5691 10.6558 34.0594ZM41.331 45.3912C40.69 44.3325 39.8659 44.8161 39.0287 45.0122C39.6566 45.8879 40.5985 46.0055 41.331 45.3912Z" fill="#292D32"/>
<path d="M22.4551 16.0355C22.9652 16.0355 23.4492 16.0355 23.9725 16.0355C24.0902 16.4538 24.3126 16.8067 24.8228 16.7936C25.2806 16.7805 25.503 16.4668 25.5945 16.0355C26.1047 16.0355 26.6018 16.0355 27.0989 16.0355C27.1381 17.2641 26.1178 18.3228 24.8751 18.362C23.567 18.4012 22.5074 17.4079 22.4551 16.0355Z" fill="#292D32"/>
<path d="M20.0874 13.2386C20.1135 12.5982 20.676 12.0754 21.3039 12.1015C21.9449 12.1277 22.455 12.6897 22.4289 13.3301C22.3896 13.9575 21.8533 14.4542 21.2254 14.4411C20.5844 14.428 20.0612 13.8791 20.0874 13.2386Z" fill="#292D32"/>
<path d="M28.3286 14.441C27.6876 14.4541 27.1382 13.9182 27.1382 13.2778C27.1382 12.6504 27.6483 12.1276 28.2762 12.1014C28.9172 12.0884 29.4666 12.5981 29.4928 13.2516C29.5059 13.8921 28.9695 14.441 28.3286 14.441Z" fill="#292D32"/>
</svg>
