<svg width="48" height="48" viewBox="0 0 48 48" fill="none" xmlns="http://www.w3.org/2000/svg">
<path fill-rule="evenodd" clip-rule="evenodd" d="M48 8.73529C46.2363 9.53847 44.3374 10.0816 42.3455 10.3243C44.3797 9.07621 45.9405 7.09715 46.6758 4.73962C44.7713 5.89528 42.6667 6.736 40.4184 7.18671C38.6265 5.22499 36.0655 4 33.2312 4C27.7964 4 23.3872 8.52148 23.3872 14.0975C23.3872 14.8891 23.4717 15.6576 23.6408 16.3973C15.4562 15.9754 8.20144 11.9595 3.34143 5.84326C2.49339 7.33983 2.00879 9.0762 2.00879 10.9252C2.00879 14.4269 3.74714 17.5182 6.38986 19.3297C4.77831 19.2806 3.2569 18.8212 1.92709 18.0701V18.1943C1.92709 23.0885 5.32206 27.1708 9.8299 28.0953C9.0044 28.3322 8.13383 28.4507 7.23508 28.4507C6.60116 28.4507 5.98133 28.39 5.38123 28.2716C6.63497 32.2817 10.2694 35.2026 14.58 35.2806C11.2104 37.9906 6.96178 39.6056 2.3497 39.6056C1.55519 39.6056 0.769149 39.5594 0 39.4669C4.35851 42.3272 9.53689 44 15.0956 44C33.2115 44 43.1146 28.6154 43.1146 15.2705C43.1146 14.8313 43.1062 14.3922 43.0893 13.9617C45.0135 12.5374 46.6843 10.7606 48 8.73529Z" fill="#00AAEC"/>
</svg>
