<svg width="19" height="20" viewBox="0 0 19 20" fill="none" xmlns="http://www.w3.org/2000/svg">
<path d="M9.49999 9.85099C11.6861 9.85099 13.4583 8.07879 13.4583 5.89266C13.4583 3.70653 11.6861 1.93433 9.49999 1.93433C7.31386 1.93433 5.54166 3.70653 5.54166 5.89266C5.54166 8.07879 7.31386 9.85099 9.49999 9.85099Z" stroke="#008C99" stroke-linecap="round" stroke-linejoin="round"/>
<path d="M15.2079 12.8119L12.4054 15.6144C12.2946 15.7252 12.1917 15.931 12.1679 16.0814L12.0175 17.1502C11.9621 17.5381 12.2312 17.8073 12.6192 17.7519L13.6879 17.6014C13.8383 17.5777 14.0521 17.4748 14.155 17.3639L16.9575 14.5615C17.4404 14.0785 17.67 13.5164 16.9575 12.8039C16.2529 12.0994 15.6908 12.3289 15.2079 12.8119Z" stroke="#008C99" stroke-miterlimit="10" stroke-linecap="round" stroke-linejoin="round"/>
<path d="M14.8042 13.2156C15.0417 14.0706 15.7067 14.7356 16.5617 14.9731" stroke="#008C99" stroke-miterlimit="10" stroke-linecap="round" stroke-linejoin="round"/>
<path d="M2.69955 17.7677C2.69955 14.7039 5.74749 12.226 9.49999 12.226C10.3233 12.226 11.115 12.3448 11.8512 12.5664" stroke="#008C99" stroke-linecap="round" stroke-linejoin="round"/>
</svg>
