<svg width="38" height="37" viewBox="0 0 38 37" fill="none" xmlns="http://www.w3.org/2000/svg">
<g clip-path="url(#clip0_731_2207)">
<path d="M36.3809 0.653564H10.4564C9.5617 0.653564 8.83643 1.39219 8.83643 2.30335V9.65323L23.8593 14.1537L37.9995 9.65323V2.30335C37.9995 1.39219 37.2742 0.653564 36.3795 0.653564H36.3809Z" fill="#41A5EE"/>
<path d="M37.9995 9.6532H8.83643V18.6529L23.8593 21.3526L37.9995 18.6529V9.6532Z" fill="#2B7CD3"/>
<path d="M8.83643 18.6543V27.654L22.9766 29.4534L37.9995 27.654V18.6543H8.83643Z" fill="#185ABD"/>
<path d="M10.4564 36.6536H36.3795C37.2742 36.6536 37.9995 35.915 37.9995 35.0038V27.6539H8.83643V35.0038C8.83643 35.915 9.5617 36.6536 10.4564 36.6536Z" fill="#103F91"/>
<path opacity="0.1" d="M19.5898 7.85388H8.83643V30.3537H19.5884C20.4818 30.351 21.2057 29.6137 21.2084 28.7039V9.50366C21.2057 8.59386 20.4818 7.85658 19.5884 7.85388H19.5898Z" fill="black"/>
<path opacity="0.2" d="M18.7057 8.75415H8.83643V31.254H18.7057C19.599 31.2513 20.323 30.514 20.3256 29.6042V10.4039C20.323 9.49413 19.599 8.75685 18.7057 8.75415Z" fill="black"/>
<path opacity="0.2" d="M18.7057 8.75415H8.83643V29.4532H18.7057C19.599 29.4505 20.323 28.7133 20.3256 27.8035V10.4039C20.323 9.49413 19.599 8.75685 18.7057 8.75415Z" fill="black"/>
<path opacity="0.2" d="M17.8216 8.75415H8.83643V29.4532H17.8216C18.7149 29.4505 19.4389 28.7133 19.4415 27.8035V10.4039C19.4389 9.49413 18.7149 8.75685 17.8216 8.75415Z" fill="black"/>
<path d="M1.61946 8.75415H17.8216C18.7163 8.75415 19.4416 9.49278 19.4416 10.4039V26.9044C19.4416 27.8156 18.7163 28.5542 17.8216 28.5542H1.61946C0.724783 28.5542 -0.000488281 27.8156 -0.000488281 26.9044V10.4039C-0.000488281 9.49278 0.724783 8.75415 1.61946 8.75415Z" fill="url(#paint0_linear_731_2207)"/>
<path d="M6.6475 21.4066C6.67926 21.6614 6.70044 21.8824 6.7097 22.0725H6.74676C6.76132 21.8918 6.79043 21.6762 6.83543 21.4214C6.88043 21.168 6.92013 20.9537 6.95587 20.7785L8.6592 13.2925H10.8628L12.6297 20.6666C12.7329 21.1249 12.8057 21.5899 12.8494 22.0576H12.8785C12.9116 21.6048 12.9724 21.1532 13.0624 20.7071L14.472 13.2885H16.477L14.0008 24.0161H11.6582L9.97872 16.9115C9.92975 16.7066 9.87416 16.4397 9.81328 16.1109C9.7524 15.782 9.71402 15.5421 9.69946 15.3911H9.67034C9.65049 15.5663 9.61343 15.8251 9.55652 16.1688C9.49961 16.5125 9.45461 16.7673 9.4202 16.9317L7.84128 24.0134H5.459L2.97217 13.2911H5.01299L6.54823 20.7933C6.58264 20.947 6.61573 21.1519 6.6475 21.4066Z" fill="white"/>
</g>
<defs>
<linearGradient id="paint0_linear_731_2207" x1="3.37705" y1="7.46425" x2="16.4144" y2="29.6367" gradientUnits="userSpaceOnUse">
<stop stop-color="#2368C4"/>
<stop offset="0.5" stop-color="#1A5DBE"/>
<stop offset="1" stop-color="#1146AC"/>
</linearGradient>
<clipPath id="clip0_731_2207">
<rect width="38" height="36" fill="white" transform="translate(-0.000488281 0.653564)"/>
</clipPath>
</defs>
</svg>
