<svg width="21" height="21" viewBox="0 0 21 21" fill="none" xmlns="http://www.w3.org/2000/svg">
<path d="M20.6772 10.7498C20.6772 16.2725 16.0881 20.7498 10.4272 20.7498C4.76697 20.7498 0.177246 16.2725 0.177246 10.7498C0.177246 5.22753 4.76697 0.749756 10.4272 0.749756C16.0881 0.749756 20.6772 5.22753 20.6772 10.7498Z" fill="#FFCC4D"/>
<path d="M10.0354 10.5342C9.93519 10.4547 9.79226 10.4525 9.68805 10.5264C9.68122 10.5314 8.97055 11.0275 7.57997 11.0275C6.18996 11.0275 5.47872 10.5314 5.47303 10.5275C5.36882 10.4514 5.22532 10.4536 5.12509 10.5325C5.02373 10.6114 4.98957 10.747 5.04196 10.8625C5.07612 10.9375 5.89612 12.6942 7.57997 12.6942C9.26439 12.6942 10.0838 10.9375 10.118 10.8625C10.1704 10.7475 10.1362 10.6131 10.0354 10.5342ZM15.7299 10.5342C15.6296 10.4547 15.4873 10.452 15.3825 10.5264C15.3757 10.5314 14.6644 11.0275 13.2744 11.0275C11.885 11.0275 11.1732 10.5314 11.1675 10.5275C11.0633 10.4514 10.9203 10.4536 10.8195 10.5325C10.7182 10.6114 10.684 10.747 10.7364 10.8625C10.7706 10.9375 11.5906 12.6942 13.2744 12.6942C14.9588 12.6942 15.7783 10.9375 15.8124 10.8625C15.8648 10.7475 15.8306 10.6131 15.7299 10.5342ZM12.705 16.3053H8.14941C7.83508 16.3053 7.57997 16.057 7.57997 15.7497C7.57997 15.4425 7.83508 15.1942 8.14941 15.1942H12.705C13.0199 15.1942 13.2744 15.4425 13.2744 15.7497C13.2744 16.057 13.0199 16.3053 12.705 16.3053ZM3.59386 8.52751C3.27953 8.52751 3.02441 8.27862 3.02441 7.97195C3.02441 7.66584 3.27782 7.41751 3.59158 7.4164C3.68041 7.41529 5.62393 7.36862 7.12498 5.4164C7.31347 5.17195 7.66994 5.12084 7.92221 5.30529C8.1739 5.48918 8.22458 5.83751 8.03609 6.08306C6.178 8.49973 3.69864 8.52751 3.59386 8.52751ZM17.2605 8.52751C17.1557 8.52751 14.677 8.49973 12.8189 6.08306C12.6298 5.83751 12.6811 5.48918 12.9327 5.30529C13.1839 5.12029 13.5403 5.17084 13.7294 5.4164C15.2333 7.37251 17.1808 7.41584 17.2634 7.4164C17.5766 7.41973 17.8294 7.66973 17.8277 7.97473C17.8266 8.28084 17.5737 8.52751 17.2605 8.52751Z" fill="#664500"/>
</svg>
